<?xml-stylesheet type="text/css" href="../../css/home/carte.css" ?>
<svg version="1.1" id="Layer_1" xmlns="http://www.w3.org/2000/svg" xmlns:xlink="http://www.w3.org/1999/xlink" xmlns:xhtml="http://www.w3.org/1999/xhtml" viewBox="0 0 1080 756">
<g id="france">
	<g id="occitanie">
		<path d="M753.3,648.9c-2.3,0-4.7,0-7,0c-1.1-1.4-2.3-2.7-3.2-3.8c-5.4-0.4-10.2-3.2-15.6-1.9c-1.1,1.1-2.4,2.4-3.5,3.5
			c-1.7,0-3.1,0-4.5,0c-0.6-1.8-1.2-3.4-1.7-4.8c-2.8-2.7-7.1-1.8-9.3-4.2c0.4-2.1,0.6-3.8,0.9-5.3c-5.5-2-9.8-5.9-16.7-5.2
			c0,0.1-0.4,1-0.8,2.1c-2.3-2.8-4.2-5.1-6-7.3c-2.7,0-5,0-7.3,0c-2.4-3-5.6-5.1-9.1-5.7c-4-0.7-7.8-2-11.7-3.1
			c-3.3-1-3.3-0.9-6.6,0.6c0,2.7,0,5.4,0,8c-0.5,0.5-0.9,0.9-1.2,1.2c-6.1,0-12.2,0-18.2,0c-0.7-0.7-1.3-1.3-2.1-2.1
			c-4.8,0.4-9.8,0.9-14.5,1.4c-4.4-3.8-8.6-7.4-12.8-11c0-0.3,0-0.7,0-1c0.3-0.4,0.9-0.8,1-1.2c0.1-2.2,0.2-3.3,0.2-5.6
			c1.5-0.1,1-1.4,1.2-2.2c1.4-1.2,2.8-1.2,4.6-1.3c0-1.7,0.1-3.8,0.1-4.5c1-2.2,4.2-2.2,3.7-4.5c0.6-0.5,1.4-1,1.7-1.4
			s0.5-0.8,0.8-1.1c1.4-1.2,0.4-3.3,1.8-4.5c-0.8-1,0.1-0.5,0.6-1.2c0,0.1,0.3-0.5,1.9-1.7c-0.4-2.3-0.3-6.4-0.8-9.1
			c-0.6-0.2-1.2-0.4-2-0.7c0.3-1.1,0.6-2.1,0.9-3.2c-1-1.9-2.5-4.4-3.6-6.6c-2,0-4.9,0-5.8,0c-1.7-1.2-1.1-1-1.9-1.6
			c0,0.2,0.4-2.6,1.7-5.8c1.7-2.4,2-5.6,2-7.8c0-1.9,0-3.9,0-6.2c2.9-0.8,5.4-0.6,8.5-1.5c0.5,0.7,1.2,1.7,2,3
			c0.4-0.5,0.7-0.9,1.1-1.3c0.6,0,1.2,0,1.8,0c0.2-1.2,0.4-2.1,0.6-3.1c1.6,0,3.4-1.1,4.8-1.1c0.2-0.7,0.4-1.3,0.6-1.8
			c3.2,0,6.3,0,9.4,0c0.4,0,0.8-0.6,1.3-0.9c1.6,0.4,2.5-1.1,3.9-1.4c1.1-0.2,2.5-0.9,3.2-0.5c2.8,1.7,5.7,0.5,8.6,1
			c0.5-0.8,0.9-1.4,1.4-2c0.3-0.3,0.7-0.7,1-1c1.3-1.2,2.7-2.3,4-3.5c0.2-0.2,0.5-0.2,0.7-0.3c0.3,0.3,0.5,0.5,0.8,0.8
			c0.5-0.4,0.9-0.9,1.2-1.2c-0.3-1.1-0.6-2.1-0.9-3c0.9-1.3,2.7-1.9,2.2-3.8c0.8-0.7,1.5-1.3,2.5-2.2c-1.5-1.1-2.5-1.8-3.8-2.7
			c1.5-2.5,4-2.7,6.2-2.9c1.5-0.2,2.5-0.6,3-1.7c-1-3.5-1.7-6.5-2.6-9.9c0.3-0.3,0.5-0.7,0.9-1.1c1.7-0.6,2.1-1.4,3.1-3.1
			c0.8-1.7,1.8-2.8,3.5-3.7c0.2-1.6,1.4-1.9,2.4-2.9c0.6-1.9,4.5-2.3,6-4.3c-0.5-0.9-0.9-1.5-1.5-2.7c7.1-2.8,7.4-9,7.4-15.3
			c2.2,0,4.3,0,6.1-0.6c1-0.3,2.5,0.7,3.5,0.4c1.7,1.9,2.7,3,4.5,4.8c0.4,0.4,1,0.4,1.6,0.5c0.3,0.3,0.7,0,1,0.3
			c0.4-0.3,0.8-0.1,1.2-0.5c0.8-0.1,1.9,0.5,2-1c3,0.1,5.7-2,8.8-0.7c0.3,0.3,0.7,0.7,1.2,1.2c0,1.3,0,2.7,0,4.1
			c1.1,1.2,2.1,2.3,3,3.4c0.6,1.5,1.1,3.1,1.6,4.5c-0.5,1.6-1.1,3.4-1.6,5.1c-0.1,0.3,0.6,0.8,0.9,1.2c-0.2,1.5,0.4,2.6,2,3
			c0,0.6,0,1.2,0,1.9c2,0.2,3.5,0.1,4-1.9c1.7-0.3,3.6-1.3,5-0.8c1.9,0.7,3.7,0.8,5.6,0.8c0.9-1.3,2.9-1.8,2.4-3.9
			c0.3-0.3,0.7-0.7,1-1c1.8-2.5,3.8-7.8,4-10.9c2.4,0.4,3-2.1,4.7-3c0.7,0,1.5,0,2.3,0c1.2,1.5,1.9,1.9,3.4,3.7
			c0,0.7,0.6,2.3,0.6,3.7c1.5,0.6,1.4,1,2.3,1.2c0,1.3,0.6,2.8,0.8,4c0,0.4,0.2,1.3,0.6,1.7c0.2,0.8,0,0.9,1.1,2.2
			c0.6,1.2,0.4,0.6,1.6,1c1.7-0.8,1.7-1.4,1.7-2.8c1.8-2,3.2-4.7,3-7.5c0.3-0.2,0.3-0.9,0.5-1.3c0.8-1.8,1.9-2.7,3.5-4.1
			c0.1,0.7,0.2,1.4,0.4,2.3c1.9-0.8,2.9-1.8,3.6-3.3c0.3-0.3,0.7-0.7,1-1c2.6,0.6,3-2.8,5.3-3c2.9,1.6,1.5,5.6,4,7.7
			c2.1,0.4,4.4,0.8,6.7,1.2c0.3,0,0.6-0.2,0.9-0.3c0.2-0.9,0.3-1.8,0.5-2.6c1,0,1.9,0,2.7,0c0.3,0.3,0.7,0.7,1,1
			c1.4,1.5,2.7,3.1,4.2,4.6c0.4,0.4,1.2,0.3,1.8,0.4c1.5,2.3,2.2,6,2.5,9c0.3,2.5,1.6,3.9,3.3,6.4c2.2,3.2,3.5,7.1,5.2,10.7
			c1.5,3.1,4.2,5.1,9,6.6c0.5,0.7,1,1.3,1.5,2.1c1.3-1.2,2.4-2.1,3.5-3.1c1.6,0.2,2.6-0.4,3-2c2.1,0.2,0.2,2.4,1.9,3.1
			c0.8-0.6,1.8-1.3,2.9-2.1c1.3,0,2.8,0,4.3,0c0.8,2.3,3.1,2.3,4.4,3.6c0.9,0.8,1.7,1.6,2.6,2.3c0.3,1.3,0.8,2.7,1,4
			c0.2,1.5,0,2.9,0,4.2c2.4,2.6,4.7,5.2,7,7.7c-0.3,0.3-0.7,0.7-1,1s-0.7,0.7-1,1c-3.2,2.3-5.9,5-7.7,8c-0.6,3.4-1.1,6.5-1.6,9.7
			c-1.6,0.1-3.1,0.2-4.7,0.3c0,0.8,0,1.3,0,1.8c-0.3,0.3-0.7,0.7-1,1s-0.7,0.7-1,1c-0.6,0.4-1.4,0.8-1.8,1.4
			c-0.4,0.7-0.4,1.5,0.8,1.6c-0.8,0.7-1.4,1.7-2.3,1.9c-1.6,0.3-2.9,0.7-3.7,2.1c-2.3,0.9-2.6,2.9-3,4.9c-0.7,0.4-1.4,0.7-2,1
			c-2.7-1.1-3.1-3.8-4.6-6.3c-2.4,0.6-5,1.3-7.5,2c-1.5,0.4-3.2,0.6-4.4,1.5c-3.9,2.9-7.6,5.9-11.2,9.1c-2.7,2.4-5.1,5.1-7.6,7.6
			c-2.9,0-5.6,0-7.7,0c-1.7,1.2-3.1,1.9-4.3,3c-2.1,1.8-4.1,3.6-5.4,6.1c-1.6,3.2-3.3,6.2-5.3,9.9c0,9.9,0,20.5,0,31
			c0.2,2.7,3.8,3.4,4.1,6.6c-4.2-1.9-8.5-1.7-12.2-1c-3.8,0.8-7.2,3.3-10.3,4.8C754.2,646.7,753.7,647.8,753.3,648.9z"/>
	</g>
	<g id="nouv-aquit">
		<path d="M592.2,614.5c-1,0-2,0-3,0c-3.9-3.3-7.8-6.6-10.4-11c-2.3,0-4.5,0.1-6.6,0c-1-0.1-2.1-0.6-3.1-1c-2-0.8-3.9-1.8-6-2.4
			c-3.3-1.1-6.1-3.1-8.9-4.8c-0.2-1.4-0.3-2.5-0.4-3.5c-1.5,0.5-2.6,0.8-3.7,1.2c0,0.8,0,1.4,0,2.5c-1,0.5-2.1,1-3.5,1.6
			c-0.7-1.4-1.3-2.5-2-3.8c3.9-2.1,3.7-6.2,5.4-9.4c-1-1.4-2.2-2.9-2.9-3.9c-2.5-0.4-4.4-0.7-6.6-1.1c-0.2,0.1-0.9,0.5-1.7,1.1
			c-0.4-0.9-0.7-1.5-1-2.2c-2-0.3-3.4-2.3-5.6-2.1c0-0.3,0-0.7,0-1c8.2-4.2,11.4-12.3,15.8-19.6c0.7-1.5-0.7-3.5,1.2-4.9
			c-0.5-1.8,0.6-3.4,1-5.1c0.4-2.2,0-4.9,1.2-6.5c1.5-2.1-0.3-4.7,1.7-6.3c0.6-4.8,2.1-9.5,3-14.2c0.7-4,2-7.9,2.5-12
			c0.4-3.2,1.7-6.4,1.7-9.8c-0.1-3.6,1.1-6.8,3.3-9.6c2.3,0.1,4.5-0.5,6.5,0.8c1-4.7-1.5-7.5-5-10.2c-0.9,1.2-1.7,2.2-2.4,3.3
			c-0.1-0.2-0.4-0.5-0.4-0.8c0.2-2.4-0.3-4.7,0.9-7.1c1-2.2-0.9-5.2,1.1-7.5c-0.4-3.8,0.6-7.4,1-11.1c0.1-1.2-0.4-2.6,0.1-3.4
			c1.2-1.8,0.7-3.7,0.9-5.6s1-3.7,0.9-5.6c-0.1-4.9,1.2-9.3,3.4-13.5c0.8,1.1,1.6,2.2,2.5,3.2c2.1,2.2,4.1,4.4,6.4,6.3
			c3.2,2.7,5,6.1,5.8,10.1c0.1,0.4,0.3,0.9,0.6,1.3c0.3,0.3,0.6,0.6,0.8,0.7c1-0.8,1.8-1.6,2.6-2.2c0-1.5,0.2-2.9,0-4.2
			c-0.6-3.7-1.5-7.4-3.7-10.4c-2.1-2.9-5.5-5-7.5-7.9c-2.1-3-5-4.7-7.8-6.5c-2-1.2-3.4-2.8-4.8-3.9c0-1.5,0-2.5,0-3.1
			c1.8-1.2,3.3-2.2,4.5-2.9c1.1-2.1,1.9-4,2.9-5.6c1.5-2.4-1-4.2-0.6-6.5c0.6-0.3,1.3-0.6,2.4-1.1c-1.7-3.5-3.3-7-4.8-10.2
			c-1.1-0.1-1.9-0.2-3-0.3c1.8-3.7,3.5-7,5.1-10.3c2.4-1.1,4.6-2.2,7.4-2.3c-0.6,0.7-0.8,1-1.4,1.8c3.4,0,6.3,0,9.3,0
			c0.5,0.7,1.1,1.5,1.7,2.3c3.4-1.8,6.5-3.4,9.6-5.1c0.4-0.2,0.6-0.7,0.9-1.2c-0.8-0.9-0.7-2-1.3-2.6c-0.7-3.3,0.6-6.6-0.8-9.8
			c-1.2-2.8-1.6-6-2.3-9s-1.4-6.1-2.1-9.3c-2.8-2.9-6-5.7-6.7-10.2c4.8-0.6,8.1-0.9,12.7-1.4c0-0.8,0.9-1.2,0.9-1.7
			c1.2-1,1.9-1.8,2.7-2.4c5.7-2.3,11.1-1,16.2-1.4c0.8,0.8,1.4,1.4,2,2c0.6,0,1.3,0,2.2,0c1.3-1.5,2.8-3.3,4.3-5
			c0.3-0.3,0.9-0.6,1.3-0.9c0.7,0.2,1.2,0.4,1.9,0.6c0.6,0.2,1.2,0.2,1.8,0.3c1,1.2,2,2.5,3,3.7c0.1,0.8,0.1,1.5,0.1,1.8
			c1.6,0.6,2.7,1.1,3.9,1.5c0,1.8,0,3.2,0,4.5c1.9,2.1,4.1,2.7,6.6,2.6c2.8-0.1,5.6,0,8.4,0c0.3,0,0.6-0.2,0.9-0.3
			c0.2-0.6,0.4-1.1,0.6-1.7c0.6,0,1.1,0,1.6,0c0.5,1.8,2.1,3.1,2.1,5.1c0,0.6,1.2,1.2,1.9,1.9c-0.2,1.6,0.4,2.6,2,3
			c-0.2,1.6,0.4,2.6,2,3c0.3,3,3,4.7,4.2,7.3c-0.9,2.2-1.9,4.4-0.7,6.7c0.6,0,1.1,0,1.6,0c0.3,0.3,0.7,0.7,1,1s0.7,0.7,1,1
			c0.4,0.7,0.9,1.3,1.3,1.9c1.2,0.1,2.4,0.1,3.4,0.2c1.6,2.7,1.6,6.4,5.3,7.4c-1.3,2.3-1.3,2.3,0.6,4.6c2.7-0.4,5-1.1,7.8-1.5
			c0,0.6,1.1,1.1,1.1,1.8c1,0,1.5,0.1,2,0.1c1.1-1.1,1.7-1.9,2.7-2.9c4.7,0.6,7.6-0.7,11.9-0.8c0.5-0.8,3.4-2.8,3.3-2.7
			c3.4,0.5,5.4,0.7,8.5,1.7c3.4,0.9,6.5,1,9.2,0.5c1.6,0.4,2.4,0.4,3.7,0.8c0.2,1.5,0.5,4.1,2.5,4.6c0.4,1.6,1.4,2.2,3,2
			c0.4,1.6,1.4,2.2,3,2c0.7,1.5,1.2,3.2,2.1,4.6c2.1,3.3,3.1,5.8,2.9,9.7c-0.1,1.1,0.1,2.1,0.8,3.2c0.8,1.2,0.8,3,1.2,4.5
			c-0.3,0.3-0.7,0.7-1,1c-0.6,0.1-1.4,0-1.8,0.4c-2.1,2.2-4.2,4.4-6.2,6.6c-1.9,0.3-0.8,1.7-0.9,2.8c1.3,1,2.6,2.1,3.9,3.2
			c0.7,2.7,1.3,4.6,2,7.3c-0.6,0.4-0.8,2-1.7,2.6c0.7,5.1,0.4,9.2,1.7,14.7c-1.1-0.4-0.8,0.7-1.8,0.3c-1.2-0.4-5.2-2.1-5.1-2.1
			c0.3,2.5-0.2,4.4-2.1,5.8c-0.2,0.2,0,0.9,0,1.4c-1.8,1.3-4,2.3-4,5c-1.1,0.9-2.1,1.7-3.5,2.8c0.7,0.5,1.1,0.9,1.5,1.2c0,1,0,2,0,3
			c-0.6,0-1.2,0-2,0c0,1.4,0,2.5,0,3.7c-1.1,0.7-2.1,1.4-3.1,2c0.3,0.9-0.6,2.2,1,2.3c0,0.5,0,1,0,1.5c-2.3,2-5.1,2.6-7.8,2.6
			c-2,0-3.1-1.2-4.3,1c-0.8,0.2-2.8-0.6-2.9,0.9c-0.7,0-1.3,0-2,0c-1.7-1.9-2.8-3.5-4.6-5.4c-0.4-0.4-1.2-0.3-1.8-0.4
			c-0.4-0.3-1.2-1-1.2-1c-1.3,1.3-3,0.9-4.6,1c-1.4,0.1-2.8,0.1-4.2,0.2c0.2,6.5-0.6,12.1-7,15.1c0,1.5,0,3,0,4.2
			c-1.1,1.7-3.6,1.4-3.9,3.5c-2.2,0.2-2.8,0.8-3,3c-1.6,0.9-3.1,1.8-3,4c-1,1-2,2-3,3c-0.3,0.3-0.7,0.7-1,1
			c-1.8,0.4-1.1,1.8-0.8,2.7c0.9,2.6,1.9,5.2,1.8,8.1c-3,0.5-5.8,0.7-7.8,2.5c0,1.4,0,2.5,0,3.5c0.7,0.2,1.3,0.4,1.8,0.6
			c0,1,0,1.8,0,2.6c-1.8,1-3.2,2.4-4.2,4.2c0.5,0.5,0.8,0.9,1.1,1.2c-2.1,1.4-4.7,2.4-4.9,5.6c-0.3,0.3-0.7,0.7-1,1
			c-2.2,0.5-4.4,1.8-6.5,0.9c-2.4-0.9-4.7-0.9-7.2-0.9c-1.1,1-2.2,2-3.3,3c-2,0-3.9,0-5.9,0c-2,0.1-4.1-0.3-6,0.2
			c-0.2,0.8-0.3,1.2-0.4,1.7c-1.7,0.1-3.2,0.2-4.3,0.3c-0.6,1.6-1.1,2.7-1.5,3.9c-0.8-1-1.7-2.1-2.7-3.2c-3.5,1.1-7,2.2-10.4,3.3
			c0.1,4.8,0.4,9.1-1.9,13c-0.3,0.5,0,1.3,0,2c-2.5,1.7-2,4.3-2,5.8c1.1,1.5,1.8,2.5,2.4,3.2c2.3,0,4.2,0,6,0c0.9,1.6,2.1,3,2.4,4.6
			c0.3,1.6-0.4,3.3-0.8,5.2c0.9,0.1,1.8,0.3,2.4,0.4c0.5,1.8,1,3.5,1.4,5.1c0.1,0.4,0,0.9-0.1,1.2c-1.1,0.7-2,1.3-3,1.9
			c0,1.5,0,3,0,4.3c-1,1.1-2.4,1.8-1.9,3.4c-0.3,0.3-0.7,0.7-1,1s-0.7,0.7-1,1c-1.4,1.1-2.7,2.3-4.2,3.5c0,1.5,0,2.9,0,4.4
			c-1.4,0.2-2.3,0.2-3.5,0.4c0,0.8-0.4,1.3-0.4,1.8c-1.5,0.1-0.8,1.2-1,2c-0.3,0.3-0.9,0.5-1,0.8c-0.3,3-0.6,6-0.8,8.2
			c-1.9,1.3-3.1,2.2-4.3,3c-1,0-2,0-3,0c-0.3-0.3-0.5-0.7-0.8-1C593,613.9,592.6,614.2,592.2,614.5z"/>
	</g>
	<g id="corse">
		<path d="M986.6,648.8c0,3,0,6,0,9c-1.5,0.6-1.3,2.3-2,3.3c-2.5,3.5-3.2,7.4-3,11.7c0.2,3.8,0,7.6,0,11.4c0,4-1.5,7.2-5,9.3
			c-0.1,0.1,0,0.6,0.1,1c1,0.2,2,0.5,3.3,0.7c-1.2,2.6-2.9,4.7-3.1,7c-0.3,2.7-3,4.6-2.2,7.6c-1,0-2,0-3,0c-1.1-1.7-2.1-3.5-2.9-4.6
			c-6.4-1.6-12.3-2.4-16-8c0-0.9,0-2,0-2.5c1.9-1.7,3.4-3,5.2-4.6c-3.3-0.6-6.3-1.1-9.2-1.7c-0.4-0.5-0.8-0.9-1.4-1.6
			c3.5-3.9,1.9-8.5,2.3-12.8c-3.2-0.9-5.3,1.2-8.2,1.5c1.2-3.7,2.3-7.2,5.9-10c-3.2-2-6-3.7-8.9-5.5c-0.3-1.8-0.7-3.8-1.1-5.6
			c2-1.3,3.7-2.3,5.3-3.4c-0.1-3.4-3.1-4.2-4.4-6.1c-0.9,0.4-1.3,0.6-1.7,0.8c0-1,0-2,0-3c2.4-1.1,3.7-3.2,3.9-5.5
			c0.2-2,0.7-3.7,1.5-5.4c1.5-0.5,2.9-0.9,4.5-1.4c0.1-0.7,0.2-1.5,0.3-2.3c3.3-1.5,6.4-3.3,9.7-4.2c2-0.5,3.1-1.5,4.2-2.9
			c0.9-1.1,1.6-2.3,2.3-3.3c3.5-0.2,6.5,2.2,9.7,0.5c0-5.7,0.1-11.3-0.1-17c0-1.4,0.5-2.4,1.1-3.6c1,0,2,0,3,0c0.3,0.5,1,1.1,1,1.6
			c-0.1,3.9,1.5,7.6,1.1,11.6c-0.3,3.4-0.1,7-0.1,9.8c1.2,1.8,2.1,3.2,3,4.4c1.2,1.7,2,3.4,2.1,5.7c0,2.2,0.7,4.4,0.9,6.6
			c0.4,3.7,0.8,7.3,1.2,11C985.8,648.6,986.3,648.7,986.6,648.8z"/>
	</g>
	<g id="bourg-fra-comt">
		<path d="M961,284.5c0,0.3,0,0.7,0,1c-0.8,0-1.7,0-2.5,0c-2.4,2.9-6.2,4.9-6.5,9.5c1.3,1.1,2.7,2.3,4.3,3.6
			c-0.7,0.9-1.5,1.7-2.2,2.6c0,1.3,0,2.6,0,3.4c-3.5,4.3-6.7,8.3-9.9,12.3c-3.3,4.2-8.3,6.5-12.1,10c0,3.9,0,7.5,0,11.3
			c-4.3,4-8.6,8-12.3,11.4c-0.9,2.7-1.6,4.8-2.2,6.8c-0.6,2.1-1.2,4.2-1.9,6.9c-0.5,0.5-1.8,1.3-2.3,2.4c-1,2.6-3.1,4.3-5.1,5.8
			c-2.2,1.7-4.8,3.7-8.2,2.5c0.6-3.6-2.4-3.6-4.6-5.2c-1.7,2-3.3,3.9-4.8,5.6c-1-0.1-1.6-0.1-2.3-0.1c-0.2-1-0.3-1.9-0.4-2.8
			c-1-0.1-1.8-0.1-2.5-0.2c-3.2-4.1-4.5-9.7-10.7-11.8c-1.8,0.2-4.5-0.7-6.3,0.8c-1.5-0.3-2.5-0.5-3.5-0.8c-1.1-0.3-2.3-0.7-3.7-1.1
			c-2.3,7.9-4.4,15.4-6.5,22.7c-2.1-2.2-3.6-5.3-6-7.6c-1,0.9-1.7,1.6-2.3,2.2c-1-0.5-1.6-0.9-2.3-1.3c-1.7,1.9-3.5,0.9-5,0
			c-1.1,0.7-2,1.2-2.7,1.6c-0.8,2.4-0.8,4.9-3.8,5.7c-0.6,0.1-1,1.2-1.4,1.8c-0.7,0-1.3,0-2,0c-0.5-0.7-1.1-1.4-1.5-2
			c-2.6,0.4-4.9,0.8-7.2,1.2c-0.2,0-0.2,0.5-0.3,0.8c-0.7,0-1.3,0-2,0c-1.6-1.2-3.1-2.4-4.9-3.7c0-0.7,0-1.8,0-2.6
			c1.4-1.9,2.6-3.6,3.6-5c0.4-2.6,0.7-4.9,1-7.1c-1.1-1.2-2.2-2.5-2.6-3c-3.3-1.3-5.7-2.2-8.3-3.2c-2.6-5.1-5.2-10.3-8.3-16.4
			c-2.5,2.6-4.6,4.7-6.8,7c-1.3-0.8-2.9-1.9-4.6-3c-1.1,0.6-2.3,1.2-3.6,1.9c-2,0-4.2,0-6.4,0c-2.1-2.6-4.1-5.1-5.9-7.3
			c0.8-5.4,1.5-10.6,2.2-15.7c-1.4-1.2-2.5-2.2-3.4-3c0-2.7,0-5,0-7c-2.1-3.8-2.6-8.1-6.4-10.7c3.4-5-0.3-9.9,0.5-14.7
			c1.3-0.6,2.6-1.2,3.8-1.7c0.7-2.8-2.3-4.4-2.1-7.2c0.1-0.7-1.8-1.6-2.8-2.5c0-0.7,0-1.3,0-2c3.4-0.8,5.8-2.8,6.9-5.7
			c-0.4-1.6-0.8-2.7-1.1-4c1.9-1.8,3.6-3.3,5.4-5.1c-0.5-2.3-1-4.6-1.4-6.9c-2.2-2.7-4.4-5.4-6.5-8c1.3-1.8,2.5-3.5,3.8-5.3
			c0-1.8,0-3.8,0-5.9c0.7-0.4,1.3-1.2,2-1.2c4.7,0,9-2.2,13.6-2.2c0.1,0,0.2-0.5,0.4-0.8c0.7,0,1.3,0,2,0c1.2,0.8,2.4,1.7,3,2.1
			c1.9,2.1,3.4,3.8,4.8,5.3c0.9,3.3,1.7,6.5,2.7,9.8c1.1-0.5,2.1-0.9,2.9-1.3c5,4.4,6.6,10.4,9.4,16.2c1.8-0.3,4-0.8,6.1-1.1
			c2.2-0.2,4.4,0,6.6-0.9c2-0.8,4.1,2,7,0.1c0-0.1,0.5-0.7,0.9-1.3c1.9,0,3.6,0,5,0c2.7-1.8,5.3-3.6,7.3-4.9c3,0.6,5.1,1,7.3,1.5
			c-0.8,2.6,1.2,3.3,3.1,4.2c0,1.1,0,2.2,0,3.5c1.3,0,2.5,0,3.8,0c0.8,1.7,1.5,3.4,2.4,5.4c-1.4,1-2.5,1.9-3.4,2.6
			c1,2,1.9,3.6,3,5.7c4.1,1,8.5,2.1,12.8,3.2c0.2,1.4,0.3,2.7,0.4,3.9c4.2-0.7,6.6-1.3,7.3-3.3c0.8-2.2,2.4-3,4-3.6
			c1.1-0.5,1.8-1.3,2.7-1.9c0.2-0.2,0.6-0.2,1.1-0.3c0.7,0.7,1.6,1.4,2.3,2.1c1.5-0.5,2.8-0.9,4.3-1.4c0-3,0-6.1,0-8.6
			c1.1-1.3,1.8-2.2,2.5-3c1.2,0,2.2,0,2.9,0c2.1-2.1,2-5.4,4.3-6.8c2.2-1.4,4.4-3,6.9-4.5c1.5,0.9,2.9,2,4.4,2.7
			c2,1,3.8,2.8,6.5,0.9c1-0.7,2.8-0.2,4.1-0.3c1.1,1.1,2.1,2.1,3,3c1.3,0,2.7,0,3.7,0c1.3-0.7,2.3-1.3,3.5-1.9
			c1.3,1.1,2.7,2.2,4.1,3.2c1.6,1.3,3.1,3.1,5,3.6c3.8,0.9,6.3,3.4,9.1,5.4c0.5,3.4,1,6.5,1.5,9.8c2.4-0.4,3.8,0.5,3.7,3.2
			C960,283.9,960.7,284.2,961,284.5z"/>
	</g>
	<g id="centre-val_loire">
		<path d="M693.6,371.5c-0.3,0-0.7,0-1,0c-0.4-0.7-0.9-1.3-1.5-2.2c-2.3,0.4-4.6,0.8-7,1.3c-0.4-0.5-0.8-1-1.1-1.3
			c0.3-1,0.6-2.1,0.9-3.2c-4.1-0.9-3.9-5-5.7-7.5c-1,0-2,0-3.3,0c-1.7-1.4-3.5-2.9-5.2-4.3c0.5-2.6,0.9-4.9,1.2-6.6
			c-4.4-6.5-9.6-11.8-11.3-18.6c-2.3-1.4-2.4-1-4.6-2.3c0.3,1.8-1.4,1.5-1.1,3.1c-4.7-0.8-9.3,1.3-13.1-2.7c0-1.3,0-2.7,0-4.6
			c-1.3-0.5-2.6-0.9-4-1.4c0.6-2.2-1.1-3.2-2.4-4.4c-1.1-0.9-2.4-1.4-3.6-2.2c0-0.7,0.3-1.1,0.3-1.8c1.9-0.2,0.4-2,0.9-2.9
			c4-7.5,5.5-15.8,7.1-24.2c2-0.3,3.6,0.5,5.1,1.8c0.3,0.2,0.9,0,1.4,0c0.1-0.9,0.2-1.7,0.3-2.7c4.7-0.5,7.8-4.1,11.9-5.8
			c0-1.1,0-2.1,0-3.5c1.2-0.5,2.5-0.9,3.7-1.3c2.4-4.1,4.8-8.1,7.2-12.1c0-3.1,0.7-6.4-1.9-9c0.6-0.6,1.2-1.2,1.9-1.9
			c0-1.4,0-2.8,0-4.2c-0.7-0.7-1.3-1.3-2-2c1-3.1-2-6-1-8.4c3.2-2.5,5.7-4.4,8.1-6.1c0-3.7,0-7,0-10.2c-1.9-2.9-5.7-4.2-6.1-7.8
			c1.4-1.5,2.5-2.7,3.6-3.9c1.8,0,3.4,0,5,0c2.2-1.3,4.3-2.6,6.5-4c3.6,2.4,7.2,0.7,11.1-0.5c-0.4-0.7-0.7-1.4-1.2-2.4
			c1.3-1.5,2.8-3.2,4.2-4.9c0.6-0.7,1.2-1.5,1.8-2.3c0.3,0,0.7,0,1,0c0,2.4,1.7,4,3,5.7c0.1,4.4-0.6,8.8,1.6,13.3
			c1.9,1.9,4.1,4.1,6.4,6.4c-0.4,3.3,1.2,5.7,3.8,7.6c1,0,2,0,3.1,0c1.2,4,2.4,8,3.4,11.5c2.9-0.3,5.6-0.6,8.5-1
			c0.5-0.7,1.1-1.7,1.8-2.7c0.3,0.9,0.5,1.4,0.8,2.4c1.3-0.5,2.4-1.1,3.5-1.3c1.2-0.2,2.6,0,3.8,0c0.6,3.6,3.3,5.4,5.2,7.5
			c0,1.2,0,2.2,0,3.3c-0.9,0.6-1.9,1.2-2.9,1.9c0.5,0.5,0.8,0.8,1.2,1.2c7.4,0.9,14.5-0.2,21.4-2.6c1.3,1.3,2.6,2.7,3.9,3.9
			c2.1,1.9,3.7,4,3.4,7.1c0,0.2,0.6,0.5,1,0.8c0,0.7,0,1.3,0,2c-1.7,1.9-3.4,3.7-5,5.6c0,1.7,0,3.3,0,5.1c-1.2,0.8-2.3,1.6-3.5,2.4
			s-2.3,1.6-3.5,2.4c3.4,3.4,4.3,5.2,5.1,10.1c-1.4,1.6-4.1,2.4-4,4.6c0.8,2.8,1.8,5,1.9,7.3c0.1,2.3-0.7,4.7-1.1,6.8
			c5,4.9,6.8,10.7,6.1,17.6c1,0.8,2.1,1.7,3.4,2.8c-0.8,5.1-1.7,10.1-2.5,15.3c-1.5,0-3,0-4.3,0c-1.9,1.4-3.6,3-5.5,4s-4,1.7-6.1,2
			c-2.6,0.4-4.3,1.8-5.9,3.7c0.4,1.1,0.7,2.1,1,3.2c0.3,1,0.5,2,0.6,2.4c-0.8,1.2-1.5,2.1-1.7,2.4c-3.8,0.6-6.7,1.1-9.3,1.5
			c-1,1.4-1.8,2.6-2.6,3.7s-1.6,2.1-2.3,3c-3.8-2.5-7.2,1.5-11-0.4c-3.2-1.6-7-1.5-11.1-2.3c-0.6,0.8-1.9,1.9-2.5,2.6
			c-4.7,0.5-8.7,1-13.1,1.5C695.2,369.5,694.4,370.5,693.6,371.5z"/>
	</g>
	<g id="pays_loire">
		<path d="M508.3,295.5c0-0.3,0-0.7,0-1c0.4-0.2,0.9-0.4,1.2-0.7c2.1-2.3,4.4-3.9,7.6-4.7c4.5-1.1,8.8-2.7,13.2-4.1
			c0-2.1,0-4.1,0-6.3c1.8-1.4,3.7-2.8,5.8-4.3c4.9,0,9.8,0,14.2,0c1.5-1.6,2.5-3.1,4-3.9c3-1.5,5.8-4,9.1-3.1
			c2.5,1.3,4.4,2.2,6.6,3.4c1.7-4.2,3.4-8.1,5.1-12.2c1.9-0.7,4.1-1.5,6.4-2.4c0-0.8,0.2-1.7,0-2.4c-1.3-5-1.6-10.1-1.9-15.2
			c-0.1-1.8,0.7-3.7,0.9-5.6c0.2-2,0-4,0-6c0-2.1,0-4.3,0-6.8c1.9,0.3,3.5,0.5,5,0.7c1.6,0.2,2.8,0.1,4.9,0.4
			c-0.3,0,1.1,1.9,2.4,3.3c2.9-1.6,3-1.5,6.4,1.1c4.8-3.5,11.4-5.3,17.5-4.2c0.6-0.9,1-2.2,1.5-2.9c0.7,0,1.8,0.8,2.5,0.8
			c0.3,0.9,0.7,1.7,1,2.6c0.5,1.7,1,3.9,2.6,4.3c2.4,0.6,2.3,2.3,2.7,4c1.8,0,3.5,0,5.3,0c3.6-2,7.1-3.9,10.4-5.7
			c1,0.8,1.9,1.7,3,2.6c0.4,2.5,0.9,5.1,1.4,7.9c2.8,2,4.9,3.9,7.9,6c1.1-0.4,2.5,0.1,3.5-0.3c1.5,1.5,2.7,2.9,4.2,4.4
			c2.8-1.3,3.6,1.3,5.2,2.3c0,1,0,2,0,3c-0.7,0.8-1.7,1.4-1.9,2.3c-0.3,1.6,0.5,2.8,1.9,3.7c0,2,0,4,0,6c-0.7,0.6-1.5,1.1-2,1.9
			c-1.8,2.9-3.4,5.9-4.9,8.6c-1.6,0.6-2.9,1.1-4.3,1.6c0,1.5,0,2.6,0,3.8c-3.1,1.7-6,3.4-9,5.1c-0.8-0.3-1.6-0.7-2.6-1.2
			c-0.2,1.3-0.3,2.2-0.5,3.4c-2-0.7-3.8-1.3-5.5-1.9c-0.4,0.4-1,0.7-1.1,1.2c-0.5,2.3-0.4,4.8-1.3,7c-1.1,2.9-0.7,6.1-2.5,9
			c-1.9,3.1-2.5,6.9-3.7,10.4c-0.3,0.9-0.7,1.7-1.2,3.2c-1.1,0.9-2.2,1.6-3.6,2.7c-1.2,1-1.7,2.7-2.9,3.7c-0.4-0.4-1.3-0.1-1.9-0.5
			c-0.4-0.3-0.8-1.1-1-1.4c-5.9,0.5-11.4-1.2-17.9,1.1c-0.9,1.2-2.3,2.6-3.6,4.4c-2.3,0.3-4.6,0.1-7,0.9c-2.3,0.8-4.7,0.4-7,0.7
			c1.2,5.4,3.7,8.9,7,11.6c1,4,1.8,7.4,2.7,10.7c0.8,3.1,2.1,6.2,2.6,9.4c0.6,3.4-0.7,7.1,1.2,10.3c-1,0.5-1.6,0.9-2.3,1.2
			c-2.9,1.2-5.6,3.6-9.2,1.4c-0.8-0.5-2.3,0-3.4-0.1c-0.7,0-1.5-0.2-2.6-0.3c0.6-1.1,0.9-1.7,1.3-2.4c-2.7-1.4-4.4,1.2-6.5,1.9
			c-2.5,0.9-5.1,0.4-7.4,1c0,1.1,0,1.9,0,2.8c-0.3,0-0.7,0-1,0c-1.1-1.4-2.3-2.7-3.1-3.8c-2.5-0.6-4.7-1.1-6.7-1.6
			c-1.2-1.6-2.3-3.1-3.4-4.8c-2.2,0.7-4-0.2-5.5-1.3c-2.9-2.1-5.5-4.6-7.9-6.8c-0.8-3.8-1.9-7.2-4.1-10.1c-2.4-3.1-5.1-5.9-7.7-8.8
			c-3.2-3.5-3.3-6.4,0.1-9.9c2.1-2.2,4.3-4.3,6.5-6.5c-3.6-3.1-5.9-7.4-11.5-7.8c1.1-0.5,1.8-0.8,2.4-1.1c0-1.7,0-3.4,0-5.1
			c0.4-2.8,2.5-3.5,4.8-3.8c0.6-0.1,1.2-0.4,1.7-0.7c0.6-0.4,1-0.9,1.8-1.7c-5.3-0.1-9.8,1.3-13.6,3.9c-2.7-0.9-5.2-3-8.4-2
			c-0.5-0.9-0.8-1.8-1.4-2.2C508.8,298.4,510.2,296.1,508.3,295.5z"/>
	</g>
	<g id="bretagne">
		<path d="M410.1,218.8c0-1.3,0-2.7,0-4c1.9-0.4,0.8-1.8,1-2.8c0.2-0.9,0-1.9,0-2.7c0.9-0.9,1.6-1.6,2.5-2.5c1.5,0,3.1,0,4.8,0
			c1.6,0,3.2-0.1,5.5-0.2c-1.4-0.7-2.1-1-2.9-1.4c3.3-1.9,6.5-3.6,9.4-5.2c0.9,1.1,1.6,2.1,2.1,2.6c5.6-0.7,10.1-3.7,15.7-3.9
			c0,2.2,0,4.1,0,6c0.7,0,1,0,1.4,0.1c0.3-0.7,0.6-1.3,1-2.2c1,0.5,2,0.9,3.2,1.4c0.2-1.2,0.3-2.1,0.5-3c0.9-0.4,1.7-0.7,2.4-1
			c1.7,0.9,3.4,1.7,5,2.6c1.8,0,3.6,0,5.5,0c0-2.6,0-5.1,0-7.2c1.6-1.1,2.8-2,4.3-3c0.7,0.9,1.3,1.7,1.7,2.4c2.8-1.5,5.9-1.8,7.9-4
			c0.7,0,1.3,0,2,0c0,1,0,1.9,0,3.1c1.1-0.1,2,0,2.7-0.3c0.7-0.4,1.2-1.2,1.9-1.8c1.4,2.3-1.8,4.1-0.2,6c1.3-1.1,2.5-2.2,4.1-3.6
			c0.3,1.6,0.6,2.6,0.8,3.8c0.9,0,1.7,0,2.6,0c1.7,4.4,6.1,7.5,5.2,12.5c1.6,1.2,3.1,2,4.1,3.2c0.9,1.2,1.3,2.8,2,4.4
			c4.4-3.6,8.5-6.9,12.5-10.2c1,0,2,0,2.9,0c0.7,0.7,1.2,1.2,2,2c1-0.2,2.1-0.5,3.2-0.8c0.2,0.9,0.3,1.8,0.5,2.5c2,0,3.8,0,5.5,0
			c0.2-0.6,0.3-1.1,0.4-1.7c0.7,0,1.5,0,2.4,0c1,2.7,1.4,6,5.9,7.1c-1.3-2.8-2.3-4.8-3.3-6.9c1.3-1.3,2.8-2.9,4.1-4.1
			c1,0,1.8,0,2.8,0c0,2,0,3.8,0,5.7c4,0,7.7,0,11.7,0c1.1,2,2.5,3.7,3.2,5.8c1.1,3.3,3.1,5.4,6.2,6.3c2.2-1.7,4.4-3.3,6.8-5.2
			c1.9,0.5,4,1,6.1,1.5c0,3.6,0.1,6.9,0,10.3c-0.2,3.4-0.9,6.7-0.9,10.1c0,4.3,1.4,8.6,1.1,13c0,0.1,0.5,0.2,0.8,0.4
			c0,0.7,0,1.3,0,2c-2.7,0.4-5.4,1.1-6.9,3.6c-1,1.5-1.3,3.4-2.1,5.1c-0.7,1.5-1.5,3-2.4,4.6c-2.4-1.2-4.5-2.3-6.8-3.5
			c-3.8,3.1-10.1,2.3-12.3,8.1c-4.7,0-9.4,0-13.9,0c-2.2,1.4-4.3,2.8-6.7,4.4c0,2.1,0,4.4,0,6.3c-3.7,1.1-7,2.1-10.2,3.2
			c-0.9,0.3-2.5-0.8-2.7,1.1c-1.3,0-2.7,0-4,0c0.7-0.6,1.4-1.3,2.4-2.2c-1.2-0.7-2.1-1.2-3.5-2c-4.1,0.4-8.7,0.9-13.1,1.3
			c-1.3-0.9-2.4-1.6-3.4-2.3c-0.1-0.1-0.1-0.4-0.1-0.9c1.4,0.4,2.7,0.8,4,1.2c1.3-1.4,3.2-2.2,2.7-4.6c-0.8-0.9-1.7-1.8-2.4-2.5
			c-1.6,0-2.9,0-4.2,0c-0.4-0.3-0.7-0.6-1.1-0.9c-0.2,1-0.4,2-0.6,2.8c-1.1-1.9-2-3.5-2.9-5c-0.2,0.1-0.5,0.1-0.7,0.2
			c0,1.6,0,3.1,0,4.9c-1.8,0-3.3,0-4.5,0c-3,3-3,3-3.6,2.4c0.3-0.6,0.6-1.2,0.9-2c-0.9-1.4-1.9-2.9-2.8-4.4c-0.1-1.9,0.7-2.8,2.5-3
			c0.1,0,0.2-0.4,0.6-1.2c-1.7,0.5-3,0.8-4.1,1.1c-1.4-0.5-2.7-0.9-3.5-1.2c-0.6-1-1-1.6-1.2-2.1c0.7-1.1,1.3-2.1,2.2-3.5
			c-1.4-0.1-2.2-0.1-3-0.2c-0.6-1.3-1.3-2.6-1.9-3.9c-0.2,0.1-0.4,0.1-0.7,0.2c0.4,2.1,0.8,4.2,1.2,6.3c-1.2,0.6-2.3,1.1-3.4,1.6
			c-0.6-0.6-1.1-1.1-1.4-1.4c-0.4-2.9-0.8-5.5-1.3-8.2c0-0.2-0.4-0.3-0.8-0.5c-0.1,1-0.3,1.9-0.4,2.9c-1.4,0.8-2.8,1.5-4.5,2.4
			c-0.7-1.6-1.3-3-2-4.6c-0.7,0.4-1.3,0.7-2,1c-0.2-0.9-0.4-1.8-0.9-3.7c-0.3,2-0.5,2.9-0.6,3.6c-1.1,0.5-1.8,0.8-2.3,1
			c-2.2-2.5-4.2-4.7-6-6.9c-2,0.8-3.6,1.4-4.8,1.9c-0.9-0.7-1.8-1.5-2.7-2.1c0-0.9,0.1-1.7,0.1-2.2c0.9-0.4,1.5-0.6,2.3-0.9
			c-0.8-1.4-1.4-2.5-2.1-3.6c-1,2.7-3.8,4.8-1.5,7.6c-1.4,1.6-2.9,3.1-4.5,4.9c-2.1-0.5-4.2-1-6.6-1.6c0.4-1.7,0.7-3.2,1.2-5
			c-1.3-2.2-2.8-4.8-4.4-7.5c-2.9-1.1-6.1-2.3-9.3-3.6c0-0.6,0-1.4,0-2.5c1.2,0,2.3,0.1,3.5,0c2-0.3,4.1,0.5,6.2-0.8
			c1.2-0.7,3.4,0.1,5.2,0.3c0.9,0.1,1.8,0.4,2.9,0.7c0.5-2,1-3.8,1.4-5.4c-4.7-4.7-6.7-5.7-10.9-5.5c-0.6,0.6-1.2,1.2-1.8,1.8
			c-1.4-2.1-2-4.4-1.3-6.9c1.5,1,2.8,1.9,4.3,2.9c2.5-0.5,5.3,0.9,8.1-1c0.6,0.9,1.3,1.9,1.9,3c2.5-0.1,4.8,2.3,7.6,0.4
			c-1.8-0.7-3.5-1.3-5-1.8c0.3-0.8,0.6-1.4,1-2.3c-1.3-0.2-2.2-0.3-3.1-0.4c-0.1-1.4-0.3-2.6-0.4-4c-2.1,0.6-3.8,2.2-5.7,0.7
			c-0.3-2.9,3.4-2,3.9-4.6c-4.7,0.8-8.9,2.7-12.3,3.7c-2.2-0.3-3.4-0.6-4.6-0.6C412.8,219.7,411.3,219.8,410.1,218.8z"/>
	</g>
	<g id="auv-rhone-alp">
		<path d="M968.7,428.1c-3.2-2.2-3.2-2.2-6-7c0-1.6,0-3.2,0-5.4c-1.6-0.8-3.4-1.7-5.2-2.6c-2.4-1.5-4.6-3.4-4.9-6
			c3.6-3.6,7-7,9.9-9.9c0-2.3,0-3.6,0-4.7c-1.2-1.7-1.9-3.9-3.4-4.7c-1.9-1-3-2.5-4.4-3.7c-1.5-1.3-2.8-2.8-4.2-4.1
			c1-2.5,1.9-4.8,2.8-7.1c-1-1.5-2.3-3.1-3.8-5.2c0-1,0-2.4,0-4c-3.8,0-7.4,0-11.4,0c-1.9,1.4-4,3.1-6.5,5c-0.8-0.3-2-0.7-3.2-1.2
			c-2.5,1.3-1.8,4.1-3,6.1c0.9,1,1.6,1.8,2.6,2.9c-2.7,2.8-6.2,4.5-8.8,6.9c-2.5,0.6-5-0.8-7.1,1c-0.5-0.5-1-0.9-1.4-1.3
			c0.4-1.6,0.8-3.1,1.3-4.6c1-2.3,3-3.4,5.4-4.1c1.9-2.5,1.3-5.5,1.3-8.4c-0.8-0.4-1.6-0.8-2.8-1.4c-1.6,2-3.1,4.3-5,6.1
			c-1.9,1.8-4.3,3.2-6.5,4.7c-1.8,0-3.6,0-5.3,0c-0.5-1.4-1-2.7-1.5-3.9c-1.4,0-2.4,0-3.3,0c-1,1.3-1.9,2.6-2.8,3.9c-1.6,0-3,0-4.7,0
			c0-0.8,0-1.6,0-2.5c-1.1-0.2-2-0.4-3.1-0.6c-0.7-1.1-1.7-2.2-2.1-3.5c-0.7-2.7-2.7-4.3-4.5-6.2c-2-2.1-4.7-2.8-7.1-1.9
			c-2,0.8-3.4,1.1-5.3-0.1c-0.7-0.4-1.2-0.1-2.5-0.1c-2.9,7.5-4.3,14.7-7,22.5c-2.3-3-4-5.1-6.5-7.4c-0.6,0.8-1.6,0.7-2.2,1.5
			c0.1,0-1.2-0.7-2.3-1.5c-0.8,0.7-2.3,0.4-3.1,1.1c-1-0.6-1.4-0.2-2.8-1c-0.8,1.8-2.2,3.4-3,5.3c-1.9,1.4-4,2.8-5.7,4.1
			c-1.1-1.1-2-2-2.4-2.4c-3.9,0.8-6.8,1.4-9.5,2c-2-1.3-3.9-2.4-6-3.8c0-1.2,0-2.8,0-5c0.5-0.5,1.4-1.2,2-2.1c0.7-0.9,1.1-1.9,1.8-3
			c0-1.7,0-3.7,0-5.8c-2.1-2.9-5.6-3.2-8.6-4.5c-1.3-0.5-1.9-1.2-2.5-2.5c-1.8-4.3-3.9-8.4-6-12.9c-2.4,2.4-4.4,4.5-6.7,6.7
			c-1.6-1.5-3-2.8-4.6-4.3c-3.2,2.6-7.1,1.7-10.7,1.8c-2-2.4-3.9-4.7-5.8-7c-2,0-3.6,0.6-5.6,0.6c-2.2,4.1-7,3.7-10.6,5.4
			c-1,0.4-2,1-3,1.5c-0.6,0.3-1,0.7-1.8,1.4c0.4,2.1,0.7,4,1.2,6.6c-0.9,0.7-1.4,1.7-2.6,2.6c-2.6,0.4-6.2,1.1-9.3,1.6
			c-1,1.5-2,2.4-3.4,4.4c0.3,1.4-0.4,3.4-0.1,5.2c2.7,1.7,5.8,4.2,8.8,6.1c1,2.3,1.9,5,3.1,8c0.1,0.3,0.9,3.4,0.9,3.6
			c-0.4,4.4,0.5,7.1,2.4,11c-4,2.7-6.8,5.8-10.1,9.1c0.3,0.4,0.4,0.5,0.8,0.9c3.1,2.8,3.9,6.8,4.8,10.8c-0.4,0.9-0.3,0.8-0.7,1.8
			c-0.3,0.7-0.9,1.6-0.8,2.1c0.9,2.9-0.2,6.9,0.8,9.7c0.6,1.7,0.7,5,0.7,5c-2.3,1.9-4.1-1-6.2-0.6c-1.8,5.5-5.8,8.1-8.5,13.1
			c0.4,0.3-0.1,2.3,0.2,2.6c-1,1-0.9,1.4-1.3,1.9c0,2-0.8,1.9-0.8,3.2c-1,0.6-0.8,1.1-1.8,1.8c0.4,1.3-1.6,2.7-1.2,4
			c-1.2,0.6-0.3,1.8-1.3,2.3c-0.1-0.2,0.6,3.3,0.6,5.1c2.2,2.4,3.5,4.8,4.8,7.3c-0.8,2.3-0.7,4.4-1.4,6.3c1.1,1.6,1.5,2.8,3.1,5.1
			c1.5-1,3.2-1,5.1-2.3c1.9,0.3,3.9,0.2,6.1,0.6c5.1-5.1,2.1-4.1,4.1-6c0.9-3.3,1.9-7.2,3.9-9.5c1.1-1.4,3.2-1.9,5.9-4
			c1.7,1.1,4.2,3.2,3.7,2.4c0,0,0.9,1.3,2.5,2.5c0,1.3,0.2,2.4,0.2,3.5c1,0.8,1.8,0.6,2.8,1.5c0,1.6,0.3,3.1,0.3,4.2
			c0.4,0.7,0.6,1.8,0.8,2.5c0.7,2.2,1.7,1.3,2.1,2c0.3-1,0-1.7,0.7-2.7c3.1-4.4,2.3-4.6,2.7-7.7c0.4-3.2,3.1-3.5,5-5.9
			c0.6,1.4,1.2,1.7,1.6,2.5c-0.1,0.1,2.1-2.7,3.3-4.2c1.4-1.6,4-1.3,3.9-4.6c4.8,0.8,3.5,5.7,5.8,8.7c0.7,0,1.7-0.1,2.6,0.2
			c0.9,0.2,1.7,0.7,2.9,1.3c0.2-1.2,0.3-2,0.5-3.3c1.2,0.1,2.6-0.1,3.6,0.4c1.8,1,3.3,2.5,4.9,3.8c1.3,1,2,2.4,3.8,3
			c1.1,0.4,2.4,2.4,2.4,3.8c0.3,8.9,6.1,15.5,9.2,23.2c0.3,0.8,1.3,1.3,2.1,1.8c1.9,1.4,3.9,2.7,6.2,4.4c2.5-1.4,5.2-3,8.1-4.6
			c0.3,0.7,0.5,1.2,0.8,1.9c4.2-2,7.7,0.4,11.6,2.7c0-1.4,1.1-3.9,1-3.9c2.7,0.4,4.1,0.4,6.6,0.8c0.8,1.1,1.9,2.5,2.8,3.6
			c3.3,0.4,5.6-1.1,7.7-2.9c-1.5,0-3,0-3.8,0c-1.4-1.1-2.4-1.8-3.7-2.9c1.6-2.6,3.1-4.6,5.1-6.6c2.6,1.2,3.9,2.7,5.9,4.1
			c-1.3,2-2.4,3.7-3.5,5.4c3.6,0,3.6,0,5.3,0.9c1.1-0.7,2.1-1.4,3.5-2.4c0,2.4,0,4.1,0,6.3c3.7,0.5,7.2,1,11,1.6c0,0.9,0,2,0,2.9
			c0.9,0.7,1.5,1.2,2.2,1.7c1.3,0,2.7,0,4,0c1.5-1.7,3-3.4,4.4-5c0.9,0,1.6,0,2.4,0c0-1.5,0-2.9,0-4.5c-3.3-1.9-6.8-3.9-10.5-6
			c-0.6-0.8-1.3-2-2.2-3.2c1.4-2.1,2.8-4.3,4-6.1c2.7-0.8,4.8,2.8,6.8-0.8c-1.1-0.6-2.3-1.4-3.4-2c1.5-3.6,2.6-6.3,3.7-9.2
			c1.7,0,3.5,0,5.1,0c0.6-0.6,1.1-1.1,1.7-1.8c0-1.2,0-2.7,0-3.9c1.9-2.1,4.2-2.7,6.5-2.4c0.6-1.4,1.1-2.5,1.6-3.8
			c5.7-0.6,10.8-5.3,17.4-3.2c0-1.9,0-3.7,0-5.7c-1.7-1.3-3.6-2.8-5.3-4.1c-0.4-1.5-0.8-2.7-1.2-4.3c0.5-1.2,1.2-2.9,1.9-4.8
			c3,1.3,5.8,2.5,8.7,3.7c2.3-1.2,4.9-2.7,8-2.7c0.8,0,1.6-0.2,2.3-0.5c5.7-2.8,11.6-5,17.4-7.5c1.1-0.5,2.3-1,3.7-1.6
			c1.2-1.9,3.2-3.8,0.7-6.5c1.6-1.4,1.3-3.8,3.2-4.9c0-0.3,0-0.7,0-1C971.3,429.7,969.9,428.9,968.7,428.1z"/>
	</g>
	<g id="idf">
		<path d="M698.5,187.7c0-0.3,0-0.7,0-1c0.9-0.7,1.8-1.3,3-2.2c1.1,0,2.5,0,3.6,0c0.6-0.9,1.2-1.5,1.3-2.2c0.4-2.3,2.8-3.9,2.1-6.4
			c0.7,0,1.3,0,2,0c0,0.6,0,1.2,0,2c1.3,0,2.5-0.3,3.3,0.1c2.2,1.1,4.1,1.7,6.1,0c2,0.7,3.8-1.7,5.4-0.9c1.7,0.8,3.4,0.5,5,1.3
			c2.5,1.2,4.9,0.7,7.1-0.4c3.8,2.2,7.5,4.4,11.6,6.8c2.6,0.4,5.6,0.8,8.7,1.3c0.4-1,0.6-1.6,0.7-2c2.1,0.4,4.2,0.8,5,1
			c3.2-1.3,5.4-2.2,7.6-3.1c1.3,0.8,2.5,1.6,3.8,2.4c0,1.8,0,3.6,0,4.9c3.8,5,9.2,6.9,13.9,10.2c0.7,2.7-2.4,3.3-3,5.1
			c1.5,3.4,2.9,6.7,4.3,10c0.7,0,1.2,0,1.7,0c0,1,0,2,0,3c-0.9,0.9-1.9,1.9-3.2,3.2c-0.6,0-1.7,0-2.8,0c0,1.7-0.1,3.2,0,4.7
			c0.2,1.5,0.7,3,1.2,4.9c-5.7,1.2-11.4,2.4-17,3.5c-0.2,0.2-0.6,0.6-1,1c0,0.8,0,1.6,0,2.4c0,5.7-2.7,8.8-8.5,10
			c-0.9,0.2-1.7,0.6-2.6,1c-0.9,0.4-2.4-0.9-2.8,1c-3.3,0-6.6,0-9.9,0c1.4-1.7,1-3.6,1-4.6c-2.1-3.5-3.8-6.1-5.7-9.4
			c-1.8,0.2-4.1,0.5-6.9,0.9c-0.2-0.3-0.8-1.1-1.7-2.2c-1.2,1.4-2.1,2.6-2.8,3.5c-2.4,0-4.4,0-6.4,0c-1.2-3.7-2.3-7.2-3.5-11
			c-1.6,0-3.1,0-5,0c-0.7-2.4-1.3-4.8-2-7.3c-1.6-1.7-3.4-3.6-5.2-5.3c-0.3-0.3-0.9-0.2-1.6-0.3c-0.3-4.1-0.5-8-0.8-12
			c-0.1-1-0.4-2.2-1-3.1c-2.1-3.3-3.8-6.6-4.5-10.5C699,187.6,698.6,187.7,698.5,187.7z"/>
	</g>
	<g id="grand_est">
		<path d="M974.2,289.2c-2.7,0-5.3,0-8,0c0-0.8,0-1.7,0-2.9c-1.1-0.4-2.4-0.9-3.7-1.4c-0.9-1.8-1.9-3.8-2.8-5.6
			c-0.9,0-1.7-0.1-2.1-0.1c-0.6-3.5-1-6.7-1.5-9.9c-3.4-1.7-6.2-4.2-9.7-5.7c-3.4-1.5-6.2-4.2-9.5-6.5c-1.8,0.8-3.6,1.6-5.5,2.4
			c-2-1.4-3.9-2.8-5.4-3.8c-1.3,0.2-2.2,0.4-3.1,0.6c-1,0.3-2,0.7-2.9,1c-2.9-1.6-5.7-3.2-8.5-4.8c-3,2.1-6.1,4.3-8.6,6
			c-1,2.2-1.8,3.9-2.5,5.6c-1.4,0-2.5,0-3.3,0c-1.1,1-1.9,1.8-2.9,2.8c0,3,0,6.1,0,9c-1.3,0.4-2.3,0.7-3.5,1.1
			c-0.6-0.5-1.4-1.2-2-1.8c-4.5,1.9-8.3,4.3-10.4,7.7c-1.6,0.5-2.6,0.8-3.7,1.1c-0.1-0.8-0.3-1.7-0.4-2.6c-4.2-3.1-9.4-2.5-13.6-4.5
			c-0.5-1.8-2-3.5-0.8-5.5c0.6-0.2,1.1-0.3,1.6-0.5c0-1.6,0-2.9,0-3.8c-1-1.5-1.8-2.6-2.7-4c-0.9,0-2,0-3.2,0
			c-0.1-1.3-0.1-2.4-0.2-3.2c-1-0.7-2-1.1-2.5-1.8c-0.5-0.7-0.5-1.8-0.7-2.6c-3.1-0.5-6.1-1-8.4-1.3c-3,2-5.5,3.6-8,5.2
			c-1.8,0-3.4,0-5.7,0c-0.3,0.5-0.7,1.4-1.1,2.2c-3.1-1.5-5.4-1.6-8.3-0.4c-2.4,1-5.4-0.7-8,1c-2.3-2.4-2.2-2.5-3.3-5.5
			c-1.6-4.5-3.8-8.7-8-11.4c-0.6,0.4-1.1,0.7-1.6,1c-4.3-11.3-4.7-10.7-8.8-14.8c-0.8,0-1.6-0.1-2.6-0.1c0-1.5,0.1-2.8,0-4.1
			c0-0.3-0.6-0.5-1-0.8c0-1.3,0-2.7,0-4c1.3-0.5,2.6-1,3.5-1.3c1.3-2.1,2.4-4,3.6-6.1c-1-0.7-1.9-1.4-3.2-2.3c-1-2.5-2.2-5.3-3-7.5
			c2.7-7,7.4-11.8,11.2-17.5c-0.7-0.6-1.5-1.2-1.8-1.4c-0.3-2.2-0.6-3.9-0.9-5.5c1.4-0.8,3.1-1.7,5-2.8c-1.2-3.1-2.3-6-3-8
			c0-5,4.1-4.8,6.5-6.6c3.2-2.3,5.9-0.1,8.7,0.8c0.4-0.4,0.9-0.8,1.6-1.4c0-6,0-12.1,0-17.9c1.3-0.6,2.6-0.8,3.2-1.5
			c2-2.4,3.8-5,5.5-7.3c-0.8-1.5-1.4-2.7-2-3.9c1.4-2.3,3.1-4.2,1.2-7c-0.4-0.6-0.1-1.8-0.1-3.1c2.4,0.7,4.4-0.4,6.6,1
			c1,0.7,3,0.2,4.6-0.3c3.1-1.1,5.9-2.7,8.8-3.9c0.2-4.4,1.5-7.3,5-11.6c0.3,0,0.7,0,1,0c0.6,0.5,1.3,1,1.8,1.5
			c-0.9,1.8-1.9,3.6-2.8,5.4c0,5.3-0.1,5.4,2.1,9.6c1.3,2.5,1.5,4.8,0,7.2c-0.1,0.2,0,0.6,0.1,0.9c0.5,0.5,0.9,1,1.4,1.5
			c2,0,4,0,5.2,0c5.2,2.1,7.4,7.9,12.9,7.1c0.7,0.7,1,1,1.5,1.5c0,0.6,0,1.4,0,2.4c1.3,0,2.4,0,3.7,0c1.4,2.7,2.8,5.3,4.2,7.9
			c2,0,3.7,0,5.7,0c0.9-1.2,1.8-2.4,2.7-3.7c2.3,0,4.8,0,7.2,0c2.7,3.6,6.3,5.4,10.6,5.8c3.3,0.4,5.2-2.1,7.1-4
			c1.4,0.4,2.7,0.6,3.8,1c3.2,1.1,6.7,1.4,9.8,3c1.1,0.5,1.8,1.1,2,2.4c0.6,4.1,2.7,7.4,5.9,10.1c0.9,0.8,1.3,2.1,2.2,3.1
			c1.5,1.7,3,3.4,5.5,3.4c0.4,0,0.9-0.2,1.5-0.3c0-1.2,0-2.3,0-3.4c1.2-0.5,2.2-0.9,3-1.3c0.9,0.5,1.8,0.9,2.4,1.2
			c1,1.8,1.9,3.4,2.9,5.1c3.6-2,7-1.6,10.5,0c2.4-1.5,4.8-2.9,7.1-4.3c4.3,1.7,6.5,5.6,9.7,8.1c2.6,0,5.1,0.1,7.6,0
			c5-0.3,9.9,0.2,14.7,2c1,0.4,2.1,0.7,3.1,1c0,0.7,0,1.3,0,2c-1.4,0.9-1.7,2.3-2.1,3.8c-1.1,3.9-3.1,7.4-5.8,10.6
			c-3,3.5-5.5,7.3-8.1,11c0.1,5.1-1.8,10-1.1,15.1c0.1,0.5-0.5,1.1-0.7,1.7c-1,4.1-3,7.7-4.6,11.6c-1,2.3-2.7,5-1.5,7.2
			c1.4,2.7-0.2,5.8,1.8,8.3c0.4,0.5,0.3,1.9-0.1,2.3c-1.1,1-0.8,2.1-0.8,3.2c0.1,2.9-1.7,5.6-1,8.6c-3.1,4.7,1,8.2,1.7,12.5
			c-0.4,0.4-1,1-1.7,1.7c0,0.9,0,2.1,0,3.1c-1.4,0.6-2.7,1.2-3.9,1.8c0,0.9-0.1,1.6-0.1,2C975.2,288.3,974.7,288.8,974.2,289.2z"/>
	</g>
	<g id="hauts-de-france">
		<path d="M823,127.2c0,0.3,0,0.7,0,1c-1.6,1-0.8,3.1-2.2,4c1.5,3.1,1.5,3.5,0.1,5.5c-1.2,1.8-2.4,3.6-3.7,5.7c-1,0-2.1,0-3.4,0
			c0,6.3,0,12.4,0,18.8c-3-0.4-5.7-0.8-7.4-1c-3.5,1.9-6,3.2-8.3,4.5c-3.1,4.3,1.1,7.4,1.8,11.3c-2.1,1.2-4.1,2.4-6.2,3.6
			c0.9,1,1.7,1.8,2.3,2.5c-0.6,1-1,1.7-1.4,2.4c0.8,1,1.6,1.8,2.3,2.7c-2.5,3.5-4.8,6.8-7.2,10.2c-0.3,0-0.7,0-1,0
			c-0.6-0.7-1.2-1.5-1.9-2c-3.9-2.6-8-4.7-10.7-8.2c-0.5-2.5-0.9-4.6-1.3-6.5c-2.6-1-4.6-2.2-7-0.4c-1.1,0.8-2.7,0.8-3.9,1.4
			c-1.3,0.7-2.3,0.9-3.5-0.1c-0.4-0.4-1.2-0.3-2-0.4c-0.8,0.7-1.6,1.5-2.2,1.9c-1.7-0.3-3.1-0.6-4.5-0.8c-1-0.2-2.1,0.1-2.8-0.4
			c-3.7-2-7.3-4.2-11.5-6.6c-0.3,0-1.6-0.4-2.2,0.1c-1.7,1.3-3.1,0.9-4.9,0.2c-2-0.8-4.3-1.3-6.5-1.2c-2.1,0.1-4.2,1-6.3,1.5
			c-0.9,0.2-1.8,0.2-2.7,0.1c-1.4-0.2-2.7-0.7-4.4-1.1c-0.3-0.8-0.7-1.8-0.9-2.6c1.6-1.3,2.9-2.3,4-3.2c-1-2.6-1.9-4.9-2.8-7.2
			c-0.6-1.6-1.9-3.6-0.9-5c1.2-1.6,0.9-3.2,0.8-4.7c-0.2-3.8-0.6-7.7-0.9-11.4c1-1.5,2-3,2.8-4.2c0.5-2.5-1.4-4.1-1.7-5.9
			c-0.5-3-2.1-5-4.1-6.8c-3.6-3.2-7.3-6.4-11-9.6c0-0.3,0-0.7,0-1c3.3-1.7,4.3-5.4,6.7-8c0.5,0,1.2,0,1.8,0c0.5,0.1,0.6,1.3,1.6,0.5
			c0.3-3.4-4.8-5.5-2.8-9.1c1.7-0.6,3.2-1.1,4.6-1.6c-1.1-1-2.1-2-2.6-2.5c0-3.6,0-6.4,0-9.5c1.1,0.4,1.8,0.7,2.8,1.1
			c0.1-2.3-2.1-2.9-2.9-4.4c0-6.7,0-13.4,0-19.5c2.4-2.2,4.5-4.1,6.5-5.9c0.4,0,1,0.1,1.4,0c3.5-1.3,6.8-2.8,10.4-3.9
			c4.2-1.2,8.5-2,12.7-3.2c2-0.5,4.2-0.5,5.9-2c1.3,0,2.7,0,4,0c1.4,2.3,2.7,4.5,4,6.6c0,1.8,0.6,3.7-0.1,4.7
			c-2,2.6-0.3,4.5,0.5,6.8c1.4,0,2.8,0,3.6,0c2,2.7,3.6,5,5.1,7c3.6-0.2,4.5-0.7,8-3.7c2.5-0.5,4.5-0.8,6.8-1.3
			c1.3,1.8,2.8,3.7,4.2,5.6c-1.1,4,1.6,7.1,1.9,10.1c1.1,1.5,1.9,2.5,2.7,3.6c1.8-0.5,3.3-0.9,4.8-1.3c1.9,2.1,4.2,3.4,7.4,2.9
			c0.9,3.5,1.8,6.8,2.6,10.1c0.5,0,1.1,0.2,1.5,0c2.3-1.2,4.4-1.6,6.7,0c0.7,0.4,2.3,0.4,2.8-0.1c1.7-1.5,3.4-0.4,5-0.9
			c1.4,1.9,2.6,3.5,3.9,5.3c0.9,0,1.7,0,2.8,0c-0.8,2.1-1.5,4-2.3,6c0.9,1.5,2,3,3.1,4.8c0.4,3.2-2.3,5.5-3.2,8.5
			c1.4,0.6,2.7,1.2,4.1,1.9c0,1.2-0.1,2.5,0,3.8C822,126.7,822.6,127,823,127.2z"/>
	</g>
	<g id="normandie">
		<path d="M711.5,167.3c0,1,0,2,0,3c-1.3,0.8-2.6,1.7-3.7,2.4c-1.6,3.7-3.2,7.2-4.7,10.7c-1.5,0-2.9,0-4.2,0
			c0.2,0.2,0.3,0.3,0.5,0.5c-1.1,0.8-2.1,1.5-3.2,2.2c0.7,2.5,1.3,4.7,1.9,7c-2.9,2.9-6.3,5.7-7,9.8c-3,2-5.7,1.8-8.4,0.2
			c-2.7,1.4-5.3,2.7-8.2,4.2c-1.3,0-3,0-4.7,0c-1.1,1.2-2.3,2.4-3.5,3.6c0,1.2,0,2.6,0,3.9c2,2,4,4,5.8,5.8c0,3.3,0,6.4,0,8.9
			c-2.9,2.2-5.4,4.1-7.8,6c0,1.6-0.1,3,0,4.3c0.2,1.2,0.6,2.4,1,3.6c-1,0-2,0-3,0c-1.1-1.4-2.3-2.7-3.3-4c-1.5,0-2.9,0-4.3,0
			c-2.5-1.8-5-3.6-6.9-4.9c-0.7-3.5-1.1-6.1-1.7-9c-1.2-0.7-2.6-1.5-3.7-2.1c-3.9,1.9-7.4,3.8-11.1,5.5c-1,0.4-2.2,0.4-3.3,0.5
			c-0.2,0-0.5-0.3-0.8-0.5c0-0.7,0-1.3,0-2.1c-1.2-0.6-2.5-1.1-3.7-1.7c-0.5-1.9-1.1-3.9-1.7-5.9c-1.4-0.7-2.8-1.3-4-1.9
			c-0.8,1.2-1.3,2.1-2,3.3c-6.2-1.1-11.7,0.4-16.7,4.1c-1-0.9-1.8-1.7-2.6-2.3c-1.3,0.5-2.5,0.9-3.8,1.4c-0.8-1.2-1.5-2.3-1.9-3
			c-1.9-0.5-3.6-1.1-5.3-1.3c-2-0.2-4,0-5.4,0c-2.4-1.2-4.3-2.2-5.9-3c-3.7,2-6.1,5.7-10.5,5c-1.6-3.2-3.1-6.2-4.8-9.6
			c2.9-0.6,5.4-1.2,8.3-1.8c0.3-0.9,0.7-2.1,1.2-3.7c-1.9,0.6-3.2,1-4.3,1.3c-3.9-2.6-3.9-7-5.8-10.4c-0.4-0.6,0.1-1.9,0.5-2.7
			c1-2.7,1.6-5.4,1.6-8.4c0-2.3-0.8-4.4-1-6.6c-0.2-1.8-0.2-3.7,0-5.5c0.2-1.7,0.7-3.4,1-5c-3.3-3.8-6.6-7.5-9.9-11.2
			c-0.2-1-0.5-2.2-0.8-3.4c-0.5-2.3-1.8-4.9-1.2-6.8c1-2.9,0.5-5.8,0.8-8.5c-1.4-0.9-2.7-1.8-4-2.6c0-0.3,0-0.7,0-1
			c4,0.2,7.2,2.6,11,3.9c3.1,0,6.4,0,9.6,0c0.7-0.7,1.3-1.3,1.7-1.7c2.3,0,4.4,0,6.6,0c0.7,1.2,1.4,2.4,1.8,3.2
			c-1,3-1.9,5.7-2.9,8.6c2.4,3.9,4.9,8.1,7.6,12.4c1.1-0.4,2-0.5,2.8-1.1c2.5-1.7,4.9-1.4,7.5-0.1c2.8,1.4,5.6,2.6,8.8,2.9
			c2.5,0.2,5.2-0.7,7.6,1c4.3-0.6,8,1.5,11.6,3.3c1.3,0.7,2.8,1.1,3.6,0.6c1.2-0.8,2.8-0.3,3.6-1c1.7-1.5,4-0.5,5.8-1.7
			s3.1-2.8,4.7-4.1c0.4-0.3,0.7-0.7,0.5-0.5c3.8-1,6.9-1.9,10.7-2.9c-3.9-2.6-8.2-1.9-11.5-4c-0.9-2,0.4-3.7,1.1-5.4
			c1.2-2.8,3.3-5.2,3.8-8.4c0.1-0.7,1.2-1.4,2-1.8c2.9-1.7,5.9-3.4,8.9-5c2.2-1.1,4.4-2.3,6.7-3c5.2-1.5,10.5-2.9,15.8-4
			c4.6-1,9.2-1.9,12.7-5.6c1-1.1,2.7-1.6,3.9-2.5c0.7-0.5,1.3-1.3,1.9-2c0.7,0,1.3,0,2,0c2.7,4.3,7.6,6.3,10.9,10
			c0.3,0.3,0.8,0.3,0.7,0.3c1,1.8,1.7,3.1,2.5,4.4c0.8,1.4,0.5,3.3,2,4.3c0,0.7,0,1.3,0,2c-1,1.2-1.9,2.3-3.2,3.8
			c1.1,1.9-1.1,4.6,1.2,6.7c-0.1,2.8,0.2,5.6-0.4,8.3C708.1,160.6,708.3,163,711.5,167.3z"/>
	</g>
	<g id="prov-alp-cot">
		<a xlink:href="#">
		<path d="M1004.1,517.8c-0.4-0.8-0.7-1.6-1.4-2.1c-1.3-0.4-2.4-0.2-3.5,0.2s-2.2,0.9-3.3,1.3c-1.1,0.3-2.2,0.7-3.3,1.1
			c-1.1,0.4-2.2,0.8-3.4,1.3c-1.4-0.7-3-1.2-4.5-1.9c-1.5-0.6-3-1.3-4.3-2.2c-1.5-0.9-3-1.4-4.7-1.9c-1.6-0.4-3.4-0.8-5.2-1.4
			c-1-1.2-2.2-2.5-3.4-4c-1.2-1.4-2.5-2.9-3.8-4.5c0.3-0.7,0.7-1.5,1-2.4c0.4-0.9,0.8-1.8,1.2-2.8c-0.5-1.2-1.5-2.2-2.4-3.3
			s-1.7-2.4-1.7-4c1.1-0.5,1.9-1.1,2.4-1.9s0.7-1.7,0.7-2.8c-0.1-1.1,0.1-2.1,0.5-3c0.4-0.9,1.1-1.8,2-2.6c0.5,0,1,0,1.6-0.1
			c0.6,0,1.2-0.1,1.8-0.1c0-0.2,0.1-0.5,0.2-0.7c0.1-0.2,0.1-0.5,0-0.7c-0.5-1.4-1-2.7-1.5-4.1c-0.5-1.4-1.1-2.8-1.6-4.2
			c-1.1,0-2.2,0-3.2,0s-2,0-2.9,0c-1.2-0.8-2.4-1.5-3.5-2.2s-2.1-1.3-3.1-2c-0.3-1.2-0.5-2.3-0.8-3.4c-0.3-1.1-0.5-2.2-0.8-3.3
			c-0.4,0-0.8,0-1.2,0s-0.8,0-1.3,0c-0.2-1.1-0.8-2.1-1.4-3c-0.6-0.9-1.1-1.9-1-3.1c-0.7,0-1.3,0-2,0s-1.3,0-2,0
			c-0.7,0.5-1,0.7-1.5,0.8c-0.4,0.1-0.9,0.1-2,0.2c-0.3,0.3-0.7,0.6-1.1,1c-0.4,0.4-0.8,0.7-1.2,1.1c-1.2-0.2-2.4-0.6-3.5-1.1
			s-2-1.1-2.9-2c-0.5,0-1,0-1.5,0s-1,0-1.5,0c-0.1,0.6-0.2,1.2-0.2,1.8c-0.1,0.7-0.2,1.4-0.3,2.2c0.2,0.4,0.5,0.9,0.8,1.6
			c0.3,0.6,0.7,1.3,1,2c0.7,0.4,1.4,0.9,2.1,1.3c0.7,0.5,1.5,1,2.4,1.5c0,1.1,0,2.2,0,3.4c0,1.2,0,2.5,0,3.8
			c-0.8,0.9-1.6,0.8-2.5,0.4c-0.9-0.3-1.9-0.8-2.9-0.4c-1,0.4-2,0.6-3.1,0.9s-2.2,0.5-3.3,0.8c-1,0.3-1.9,0.6-2.9,0.9s-2,0.7-3,1
			c-0.2,0.4-0.4,0.9-0.7,1.4c-0.2,0.5-0.5,1-0.7,1.5c-1.1,0.4-2.2,0.7-3.3,1.1c-1.1,0.4-2.3,0.7-3.5,1.1c0,1,0,1.8,0,2.6
			c0,0.8,0,1.5,0,2.1c-0.4,0.3-0.6,0.6-0.9,0.9c-0.2,0.2-0.5,0.5-0.7,0.7c-0.8,0-1.7,0-2.6,0s-1.9,0-3.1,0c-0.4,1.2-0.8,2.3-1.2,3.5
			s-0.8,2.3-1.1,3.4c0.5,0.6,1,1.1,1.4,1.6c0.5,0.5,1,1.1,1.6,1.8c-0.7,0.3-1.2,0.6-1.6,0.8c-0.4,0.3-0.8,0.6-1.5,0.8
			c0.1,0.2,0,0.4-0.1,0.6s-0.2,0.4-0.1,0.6c-0.8-0.2-1.7-0.4-2.5-0.6c-0.9-0.2-1.8-0.4-2.7-0.6c-0.4,1-0.9,1.7-1.4,2.5
			s-1,1.7-1.6,2.9c1.5,1.6,3.6,3,5.8,4.3s4.5,3,6.6,4.2c0,0.8,0,1.7,0,2.8s0,2.2,0,3.4c-0.5,0-1,0.1-1.5,0.1s-1.3,0.1-2.1,0.1
			c-0.8,0.9-1.6,1.9-2.4,2.9c-0.9,1-1.8,1.4-2.7,2.4c-1-0.5-2.3,0-3.3-0.5s-1.7-1-2.7-1.5c-0.1-0.6-0.6-1.3-0.5-1.6
			c0.1-0.4,0-0.8-0.1-1.2c0.1,0-3.1-0.8-4.9-1c-1.8-0.2-4-1.3-5.9-1.5c0-0.8-0.3-0.4-0.3-1.3s-0.1-1.8-0.1-2.9
			c-0.7,0.3-0.7,0.4-1.2,0.6c-0.5,0.2-0.6,0.1-1,0.3c-1.3-0.5-1.9-0.7-2.5-0.7s-1.2-0.2-2.5,0.3c-1.2,0.5-2.7,1.9-4,2.4
			s-2.5-0.1-3.9,0.5c-0.6-0.8-0.8-0.5-1.4-1.3c-0.6-0.8-1.5-1.6-2.2-2.4c-0.8,0-1.5-0.1-2.4-0.1s-2.1-0.4-3.1-0.4
			c-0.4,1.4,0.5,2.9,1,4s1.2,2.1,2.4,3.1c0,1,0.1,2.2,0.1,3.2s0.5,1.8,0.5,3c1.2,1.1,1.8,3.5,3.1,4.6c1.2,1.2,2.5,3.3,3.9,4.6
			c-1.1,1.3-2.4,1.8-3.5,3.2c-1.2,1.4-2.4,2.8-3.7,4.1c-0.9,1-1.7,0.9-2.2,2c-0.6,1.1-1,3.2-1,4.6c0,1.1-0.2,2.1-0.5,3.2
			c-0.3,1.1-0.6,2.2-0.8,3.4c-0.1,0.1-0.3,0.3-0.5,0.5s-0.6-0.2-0.8,0.1c-0.4-0.2-0.8,0.4-1.3,0.2c-0.5-0.1-0.4,0.4-1,0.2
			c-0.8,0.9-1.6,1.4-2.2,2.2c-0.7,0.8-1.3,1.6-1.9,2.3c0.2,0.8-0.5,0.9-0.6,1.4c-0.2,0.5-0.2,0.3-0.1,0.8c-1.3,0.2-1,0.8-1.8,1.3
			s-1.6,0.9-2.7,1.2c-0.6,0.7-1.2,1.4-1.8,2.1c-0.5,0.7-1,1.5-1.3,2.6c0,0.2-0.1,0.3-0.2,0.4c-0.1,0.1-0.2,0.2-0.2,0.4
			c1.4,0,2.9-0.1,4.3-0.2c1.4,0,1.7-0.2,3,0.1c1.4,0.4,2.2,0.5,3.6,0.7c1.4,0.1,2.8,0.1,4.3,0.2c0.3,0.9,0.5,1.9,0.8,2.8
			c0.3,1,0.6,2,0.9,3c1.8,0,3.7,0,5.6,0s4,0,6.1,0c-0.2-0.4-0.3-0.9-0.4-1.3c-0.1-0.4-0.3-0.8-0.4-1.3c0.3-0.5,0.7-1,1-1.6
			c0.4-0.6,0.7-1.1,1.1-1.7c0.6,0,1.1,0,1.7,0s1.2,0,1.8,0c0.7,0.9,1.5,1.9,2.3,2.8c0.8,1,1.6,2,2.5,3.1c2.4-0.2,4.9-0.4,7.4-0.6
			c2.5-0.2,4.3-1.4,6.6-1.6c1.9,1.3,2.7,3.2,3.4,5.1s1.4,3.8,3.2,5c2.1-0.4,4.1,0.6,6.1,1.2c2,0.7,4.1,1.1,6.2-0.4
			c1.3,0.8,2.5,1.5,3.7,2.2s2.3,1.4,3.4,2c0.1,0.5,0.2,1,0.2,1.5c0.1,0.5,0.2,0.9,0.2,1.4c1.9-0.5,3.7-1.1,5.4-1.6
			c1.8-0.5,3.6-0.7,5.4-0.4c1.1,0.2,2.3,0.2,3.4,0.5c1.1,0.3,2.1,0.9,2.6,2.4c0.2,0,0.3,0,0.5,0s0.3,0,0.5,0c0.2-0.8,0.5-1.6,0.7-2.5
			c0.2-0.8,0.5-1.7,0.7-2.6c1.4,0.1,2.8,0.6,4.2,0.9c1.4,0.3,2.8,0.4,4.3-0.2c0-0.4,0.1-0.8,0.1-1.1c0-0.4,0.1-0.8,0.1-1.2
			c0.9-0.2,1.8-0.5,2.8-0.7c0.9-0.2,1.8-0.5,2.8-0.6c1.1-0.1,1.7-0.7,2.3-1.4s1.2-1.4,2.2-1.6c0.3,0.1,0.6,0.3,0.9,0.5
			c0.4,0.2,0.8,0.4,1.2,0.7c1-0.6,1.7-1.4,2.1-2.3c0.5-0.9,0.7-1.9,0.8-3c-0.6-0.4-1.1-0.8-1.7-1.2c-0.6-0.4-1.2-0.8-1.8-1.3
			c0.8-1,1.5-2,2.2-2.9s1.4-1.8,2.1-2.6c0.7-0.8,1.2-1.8,1.8-2.7s1.4-1.6,2.7-1.9c0.7,0,1.5,0,2.2,0s1.4,0,2.2,0
			c1.3-1.6,2.1-3.5,3-5.2s1.9-3.3,3.5-4.3c0.9-0.3,1.6-0.5,2.4-0.8c0.8-0.2,1.5-0.5,2.3-0.7c0.2-0.7,0.5-1.4,0.8-2.3
			c0.3-0.8,0.6-1.8,1-2.9c2.6-1.4,5.2-2.8,8-4.3s5.6-3,8.5-4.6c0-1.3,0-2.7,0-3.9s0-2.5,0-3.5c1.7-2.3,3.2-4.6,4.7-6.7s3-4.2,4.5-6.3
			c0-0.3,0-0.7,0-1s0-0.7,0-1C1004.9,519.3,1004.4,518.6,1004.1,517.8z M882.4,572.4c-1.4,0.7-2.3,0.7-3.9,1.4c-1-0.7-2-0.7-3.1-1.2
			c-1-0.7-1.9-1.6-2.9-2.3c0-1-0.2-1.4-0.2-2.3s0.5-1.5,0.5-2.6c1.1,0,1.6-0.3,2.5-0.3s1.1,0.6,2,0.6c-0.1,1.1,1.2,0.7,1.5,1.2
			c0.4,0.6,0.5,1.7,0.8,2.4c0.7,0.4,1.6-0.1,2.4-0.3c0.7-0.3,1.3-0.1,2.2-0.4C884.5,570.3,883.7,571.7,882.4,572.4z"/>
		</a>
		<polygon points="866.5,510.8 869.1,510.8 869.6,509.8 870.6,508 871.8,505.9 870.7,504.9 867.2,502.9 864.7,505.5 863.4,508 
			864.6,509.5 	"/>
	</g>
</g>
<g id="dom">
	<g id="guyanne">
		<path for="activ-plt" d="M136.8,671.4c0-0.3,0-0.7,0-1c1.7-0.9,3.2-1.7,5.3-0.3c1.7,1.1,2.4,0.4,2.7-1.6c0.5-4,2.3-5.9,6-6c1.4,0,2.2-0.6,2.9-1.5
			s1.1-1.9,1.8-2.7c1.4-1.9,3.1-3.7,4.2-5.7c1-1.7,1.9-3.7,1.9-5.6c0-2.9,2.4-3.7,3.7-5.5c0.2-0.2,0.5-0.6,0.4-0.8
			c-0.7-3.1,1.8-4.4,3.5-6c1.6-1.6,2.9-3,2.6-5.5c-0.1-0.6,0.5-1.5,1-2.1c0.9-0.9,1.4-1.5,0.3-2.9c-0.6-0.7-0.5-2.3-0.3-3.3
			c0.4-1.3,1.7-2.4,1.8-3.7c0.2-1.3-0.6-2.7-0.9-4.1c2.4-1.4,0.3-3-0.2-4.1s-0.8-1.6-0.1-2.9c0.8-1.4,0.9-3.3-1.6-4.1
			c-1-0.3-1.3-1.2-0.6-2.7c1.6-3.8,4.8-6.3,6.9-9.6c0.5-0.8,1.3-1.7,2.1-2.1c1-0.4,2.2-0.1,3.5-0.1c0-1.3-0.2-2.4,0-3.3
			c0.5-1.8,1.1-3.6,2-5.2c0.5-1,1.6-1.7,2.4-2.5c1.2-1.1-1.4-1.7-0.2-2.8c1.9-1.7-0.2-4.6,1.8-6.2c-1.7-2.1-0.2-3.6,0.7-5.4
			c0.6-1.2,0.5-2.6-0.4-4.1c-0.8-1.3-0.9-2.4-2.6-0.9c-0.3,0.3-1.3,0.1-1.6-0.2c-1.3-1.1-2.4-2.3-3.6-3.5c-0.2-0.2-0.4-0.6-0.3-0.7
			c1.9-2.2-0.9-3.2-1.2-4.9c-0.6-3.9-2.9-5-6.5-4.5c-0.2,0-0.4,0.1-0.5,0c-1-0.5-2.9-0.6-1.1-2.5c0.3-0.4,1-2.7-1.1-2.4
			c-2.6,0.3-3-1.5-3.7-3.2c-0.3-0.7,0.4-1.6-0.9-1.9c-2.2-0.5-2.2-2.7-3.1-4.3c-1.3-2.3-0.9-5.8-4.4-6.7c-0.4-0.1-0.8-1.7-0.5-2.1
			c1.5-1.9,0.3-5,2.9-6.4c0.1-0.1,0-1.1-0.3-1.3c-1.3-0.8-2.6-1.8-4.1-2.1c-1.3-0.2-1.7-0.6-1.6-1.8c0.2-2-0.7-4.3,1-6.1
			c-1.5-2.4-0.8-5-1.1-7.6c-0.1-0.6-1-1.4-1.7-1.6c-0.5-0.2-1.3,0.5-2.2,0.8c0-2,0.2-3.8,0-5.5c-0.3-2.7,1-5.6-0.9-8.1
			c-0.2-0.2,0.5-1.1,0.8-1.6c2.1-3,2.6-5.5,1-8.1c-0.6-1.1-1-1.5-0.2-2.9s1-3.5-0.5-5c-0.6-0.6-1.8-0.9-2-1.6c-0.4-0.8,0-2-0.1-3
			c-0.4-3.7,0.9-7.5-0.9-11.1c-0.5-0.9,0-1.9,1-2.5c2-1.2,2.1-3.1,2-5.2c0-1.1,0.1-2.3,0.5-3.3c0.6-1.6,1.8-3,1.5-4.9
			c-0.1-0.3,0.4-1,0.6-1.1c2.4-0.3,2.9-2,3.9-3.8c1.1-2,2.5-4,3.8-5.9c1.8-2.7,3.5-5.9,6.8-7.3c4-1.8,6.8-5.1,9.5-8.3
			c2.7-3.2,4.7-6.9,7.9-9.6c3.8-3.2,3.6-7.3,3.4-11.6c-1.7-1.1-0.4-2,0-3.2c0.8-2.5,3-4.4,3.1-7.2c3.3,0,6.7,0,10,0
			c0.1,0.3,0.2,0.8,0.4,0.8c5.4,1.2,10.1,3.8,14.8,6.6c3.1,1.9,6.2,4.1,9.9,5.1c1.8,0.5,3.4,1.5,5.1,2c1.9,0.6,3.7,1.8,5.9,1.4
			c2.8-0.5,5.3,0.5,7.9,1.5c2.1,0.7,4,1.2,5.8-0.7c0.4-0.5,0.8-1,1.4-0.2c1.6,1.8,3.9,1.9,6,2.4c2.7,0.7,5.4,1.4,7.7,3.2
			c2.9,2.3,5.2,2.7,10.6,3c1.6,0.1,3.4,0.6,4.7,1.5c2.4,1.6,4.7,3.5,6.6,5.6c2.2,2.5,4.6,4.7,7.1,7c5.5,5.2,11,10.4,16.5,15.5
			c0.4,0.3,0.6,0.9,1.1,1c4.1,1.6,6.8,4.9,9.8,7.8c0.7,0.7,1.3,1.7,2.1,2.1c2.3,1,3.8,2.6,4.9,4.9c0.9,1.8,2.3,1.9,4,0.5
			c1.1-0.9,2.1-1.7,3.4-0.9c1.2,0.7,3.1,1.6,3.1,2.5c0.1,2.3,1.5,3.4,2.9,4.3c2.5,1.6,4.5,3.7,6.6,5.7c0.5,0.4,0.9,1,1.5,1.2
			c3.7,0.8,6.5,3.3,9.1,5.6c3.3,2.9,7.1,4,11.2,4.3c2.9,0.2,5.2,1,7.3,3c2.2,2.1,3.2,4.6,3.5,7.6c0.1,1.4-0.6,3,1,4.1
			c-0.7,2.4,1.8,3.8,1.9,5.7c0.1,3.6,2.2,4.7,4.9,5.1c-0.6,1.1-1.4,2.2-1.7,3.3c-0.5,1.6,0.1,3.3,1,4.5c2,2.9,3.7,6.1,7,7.8
			c0,0.3,0,0.7,0,1c-0.3,0.3-0.9,0.5-1,0.8c-0.4,3-0.4,6.1-1.2,9c-0.4,1.6-0.7,3.6-3.2,4.3c-1.9,0.5-3.4,2.1-5.3,2.8
			c-2.5,1-3.7,2.5-3.4,5.1c0.3,2.2-0.7,4.1-2.2,5.6c-2.4,2.5-4.7,5.3-7.5,7.3c-1.8,1.3-2.6,2.5-2.4,4.5c0,0.5-0.4,1.4-0.8,1.4
			c-4.1,0.6-5,3.5-5.1,6.9c-0.1,1.3-0.5,2.1-1.3,3c-0.7,0.8-1.2,1.8-1.8,2.7c-2.2,3.4-4.5,6.7-6.5,10.3c-1.7,3.1-3.7,6.1-5.4,9.3
			c-1.6,3-3.5,5.9-5.4,8.8c-0.5,0.7-1.2,1.7-2.4,0.8c-0.3-0.2-0.9-0.4-1-0.3c-1,0.9-2.2,1.7-2.8,2.8c-0.5,0.9,0,2.5-0.5,3.2
			s-2,0.7-2.9,1.2c-0.5,0.3-0.8,1-0.9,1.6c-0.1,1.3-0.6,3.1,0.1,3.9c1.9,2.5,0.2,4.1-0.7,6c-1.1,2.4-2.2,4.8-3.2,7.2
			c-0.3,0.7-0.3,1.9,0,2.3c0.9,0.9,0.5,1.3-0.2,1.8c-5.5,4.1-6,5.2-8.1,12.6c-0.9,3.1-2.8,5.8-4.2,8.8c-2.9,0.9-2.2,3.1-1,4.3
			c1.6,1.7,1.2,2.7-0.3,3.9c-1.1,1-2.5,2-0.5,3.5c-1.3,0.8-3,1.1-3.2,3.1c-0.1,0.5-1.2,0.9-1.8,1.4c-1.5,1.2-4.4,5.4-4.9,7.7
			c-0.2,1-0.5,1.3-1.5,1.4c-1,0.1-2.3,0.4-3,1c-1.4,1.3-3.3,1.9-4.7,3c-1.6,1.2-3.3,1.7-5,2.6c-1,0.5-1.9,1.1-2.8,1.8
			c-2.2,1.6-2.6,4.3-4.1,6.3c-0.3,0.4-0.6,1.1-1.1,1.2c-1.8,0.5-3.9,0.4-5.5,1.3c-2.3,1.3-3.1-1.3-4.9-1.3c-0.8,0-1.8-0.6-2.4-1.3
			c-1.2-1.5-2.6-1.8-4.4-1.6c-3.4,0.4-6.7,0.7-10.1,1c-0.8,0.1-1.7-0.1-2.4,0.2c-0.7,0.4-1.2,1.2-2.1,2c-0.9-3.9,2.5-4.7,3.7-6.7
			c-2.3-1.8-5-3.1-6.9-5.5c-0.7-0.9-1.8-1.6-2.9-2c-1.5-0.5-0.8,1.5-1.6,1.9c-0.4,0.2-0.7,0.8-1.1,1c-2.4,0.9-4.4,2.5-6.3,4.3
			c-0.5,0.5-1.4,0.7-2.2,0.7c-2.6,0-5.3,0.2-7.8-0.4c-2.4-0.5-4.7-1.8-7.3-1.6c-0.4,0-0.8-0.5-1.2-0.8c-1.8-1.4-3.9-1.9-6.1-2.2
			c-0.6-0.1-1.1-0.4-1.6-0.7c0.3-0.5,0.5-1.1,0.9-1.6c0.3-0.4,0.8-0.8,1.2-1.2c-0.5-0.3-0.6-0.4-0.7-0.4c-4.7-1.9-4.9-1.8-7.4,3.2
			c-0.4,0.8-2.2,1.8-2.4,1.6c-2.5-1.9-2.8-0.1-3.6,1.7c-0.4,0.9-1.4,2.5-3.1,0.9c-1-1-1.8-0.5-1.8,0.9c0,1.1,0.3,3-0.3,3.3
			c-2.4,1.4-5,2.3-7.6,3.4c-0.2,0.1-0.7-0.1-0.9-0.2c-1.5-1.7-2.5-0.3-3.1,0.7c-0.9,1.7-1.5,3.7-2.2,5.6c-1.7,0-3.3,0-5,0
			c-0.9-1.4-1.8-2.9-2.8-4.3c-0.2-0.2-0.9-0.4-1-0.3c-1.7,2.4-4.2,1.1-6.3,1.7c-1.9,0.5-3.4-2.4-5.2-0.2c-0.9-1-2.4-2-2.5-3.1
			c-0.1-2.3-1.8-2.2-2.6-1.6c-2.5,1.8-4.3-0.6-6.5-0.7c-1-0.1-1.8-1.9-2.9-2.6c-1-0.7-2.3-0.9-3.4-1.5c-0.8-0.4-1.3-1.2,0.3-1.3
			c0.3,0,0.8-0.4,0.8-0.4c-0.6-1.4-1.2-2.8-2-4.1c-0.6-0.9-1.4-0.6-2,0.1C138.4,673.6,137.9,671.2,136.8,671.4z"/>
	</g>
	<g id="reunion">
		<path d="M151.3,318.5c-0.3,0-0.7,0-1,0c-0.4-0.3-0.8-0.9-1.3-1c-2.5-0.3-5.3,0.8-7.2-2c-0.1-0.2-1,0-1.3,0.2
			c-0.9,0.9-1.5,0.3-2.5,0.1c-4.1-1-7.8-3-12-3.6c-1.7-0.2-4.1-0.7-5.3-2.8c-0.3-0.5-1.4-1.1-2-0.9c-1.8,0.3-2.8-0.8-3.7-1.9
			c-3-3.8-7.3-4.7-11.8-5.2c-0.3,0-0.5-0.3-1-0.5c0-1,0-2.1,0-2.4c-1.7-1.5-2.7-3-4-3.5c-1.8-0.6-2.1-2.1-2.8-3.3
			c-0.8-1.3-1.1-2.5-0.2-4.2c0.6-1.1,0.7-3.7,0-4.3c-2-1.7-1.6-4.5-3.7-6.1c-2.3-1.8-4.2-4.1-6.2-6.1c0-1.7,0.1-3.2,0-4.7
			c0-0.3-0.6-0.5-1-0.8c0-0.7,0-1.3,0-2c1-0.7,2.1-1.9,3.1-1.9c3-0.1,5.1-1.6,6.8-3.6c0.5-3.9-1-8,1.4-11.3c1.7,0.5,3.3,1,4.9,1.5
			c0.2,0.1,0.5,0,0.7-0.1c1-0.7,2.1-1.4,3.1-2.1c1.2-0.8,2.4-1.5,3.4-2.5c3-2.9,6.5-4.5,10.8-4c0.7,0.1,1.8,0.4,1.8-1
			c0.3,0,0.7,0,1,0c0.4,1.4,1.3,2.1,2.9,2c1.3-0.1,2.7-0.1,4,0c1.4,0.2,2.7,0.8,4.1,0.9c1,0.1,1.8,0.5,2.6,0.9
			c0.7,0.3,2.6-1,2.9-0.7c1.8,1.9,4.4,0.1,6.4,1.7c1.7,1.3,4.3,1.5,6.6,2.1c0.6,0.2,1.3,0.3,1.7,0.7c4.2,3.7,8.3,7.6,6.9,14.1
			c-0.1,0.3,0.1,0.6,0.2,0.9c0.5,0.5,0.9,1,1.4,1.4c1.8,1.6,3.2,3.4,4,5.9c1.1,3.8,5.5,5.3,7,9c0.1,0.1,0.7-0.1,1,0
			c3.1,1.8,7,2.8,6.6,7.6c0,0.1,0.5,0.2,0.8,0.3c0,0.3,0,0.7,0,1c-0.4,0.2-1,0.4-1.2,0.7c-0.8,2.4-2.2,4.4-3.5,6.5
			c-0.3,0.5-0.3,1.2-0.3,1.8c0,3.8-0.1,7.6,0,11.4c0,1,0.7,2,1,2.8c-1.6,1.7-3.1,3.3-4.2,4.4c-2.4,0.9-4.4,0.1-6.6,1.2
			c-2.3,1.1-5.3,0.8-7.9,1.2C157.1,316.6,151.8,318.2,151.3,318.5z"/>
	</g>
	<g id="mayotte">
		<path d="M315.3,264.4c-0.4-0.5-0.9-1.3-1.8-2.5c-0.2,1.5-0.4,2.4-0.5,3.5c-1.7-0.5-3.3-1-4.8-1.5c-4.8-8.3-4.8-8.3-8.6-10.2
			c-1.2,1.8-2.4,3.7-3.6,5.4c-1,0.2-2,0.4-2.5,0.5c-0.6,1.3-1,2.3-1.5,3.2c0.9,0.4,1.5,0.8,2.5,1.2c-0.9,1.2-1.8,2.3-2.7,3.6
			c3.7,1.5,7.1,2.8,10.6,4.2c-0.4,1.3-0.7,2.2-1,3.2c0.4,0.2,1,0.4,1.6,0.6c-0.3,0.5-0.7,1-1.1,1.7c2.2,1.7,1.1,3.6-0.1,5.6
			c1.3,0.3,2.4,0.5,4.4,0.9c-2.2,1.2-3.6,2-5.1,2.8c1.2,2,4.2,1.5,4.1,4.2c1.7,0.8,3.4,1.6,4,3.7c0.5,1.7,1.6,3.3,2.3,4.9
			c-0.8,0.8-1.3,1.2-1.5,1.4c-2.9,1.3-4.6-0.9-6.8-1.6c-0.5-1.3-0.9-2.6-1.5-4c-1.4,0.1-3,0.1-4.2,0.2c0.5,2.1,1.6,3.7,3.1,4.6
			c0.7-0.3,1.2-0.5,1.6-0.7c0.3,0.3,0.7,0.7,1,1c-0.5,1.1-1,2.2-1.2,3.5c-0.1,0.8-1.7,1.4-2.5,2c0.4,0.5,0.8,1,0.8,1
			c1.6-0.2,2.7-0.3,4.1-0.5c-0.4,1.6-0.8,2.8-1.1,4c0.1,0.3,0.2,0.6,0.3,0.8c0.2-0.3,0.4-0.6,0.7-0.8c0.5-0.3,1-0.6,1.7-1
			c0.6,0.9,1.3,1.9,1.9,2.8c0.3-0.3,0.7-0.5,1.4-1.1c0,1,0,1.7,0,2.3c0.7,0,1.3,0,2,0c0.7-1.7,1.4-3.4,2.3-5.6c1,1.6,1.6,2.6,2,3.2
			c1.6-0.3,3.1-0.6,4.7-1c0-0.5-0.1-0.9-0.1-1.3c-3.3-0.7-3.3-0.7-5.7-4.5c0.6-1.3,1.4-2.3,1.7-3.4c0.5-1.6,1.3-2.5,3-2.3
			c0.3,0,0.7,0,1,0c-0.3-0.3-0.7-0.7-1-1c0.2-0.7,0.3-1.6,0.7-2.2c1.1-1.2,2.3-2.3,3.6-3.4c-1.3-1.2-0.6-3.6-2.9-3.5
			c-0.7-1.5-1.4-3-2.2-4.7c1.5-2,3.4-4.1,4.4-6.5c0.7-1.6,2.3-1.6,2.9-2.7c0.7-1.4,1.1-2.9,1.7-4.6c-2.2-1.7-4.4-3.6-6.6-5.4
			C319.1,264.4,317.4,264.4,315.3,264.4z"/>
		<path d="M335.4,270.1c-1.2,1.3-2.2,2.3-3.4,3.5c0.8,1.9,1.7,3.8,2.6,5.6c1.2-1.6,2.4-3.2,3.7-4.8c0-0.3,0-0.7,0-1
			C337.3,272.3,336.4,271.3,335.4,270.1z"/>
		<path d="M288.2,247.4c-0.3,0.3-0.7,0.7-1,1c0,0.3,0,0.7,0,1c1,0.3,1.9,0.7,2.9,1c0.2,0.1,0.6-0.1,0.9-0.3c0-0.4,0.1-0.8,0.1-1.1
			c-0.7-0.6-1.4-1.1-2-1.7C288.9,247.4,288.6,247.4,288.2,247.4z"/>
		<path d="M327.1,281.5c0-1.8,0-2.3,0-2.9c-0.6,0-1,0-1.6,0C325.9,279.3,326.2,279.9,327.1,281.5z"/>
		<path d="M302.2,251.4c-0.3,0.1-0.6,0.2-0.8,0.3c0.3,0.2,0.6,0.4,0.8,0.7C302.2,252.1,302.2,251.8,302.2,251.4z"/>
	</g>
	<g id="guadeloupe">
		<path d="M194,82.5c-3.1,2-6.5,3.6-9.7,5.4l0,0c-1.2,0-1.3,1-0.9,1.5c0.7,0.8,1.6,0.9,1.9-0.5l0,0c1.9-0.4,4.2-0.3,5.7-1.4
			c2-1.5,4.2-2.4,6.3-3.6v-2C196.1,82,195.1,81.8,194,82.5z"/>
		<path d="M101.5,159.4l1.9,1.6c0.3,0,0.5-0.1,0.8-0.1l2.1-3l-3.5-1.4L101.5,159.4z"/>
		<path d="M156.3,134.7c-4.4,2.5-4.3,8-8.2,10.8c0.4,2.2,0.9,4.5,1.4,7.2c6,3.2,6,3.2,11.2,3.2c3.3-2.5,7-4.5,8.6-8.1
			c-0.6-3.8-3.8-5.1-5-7.6C162.6,136.5,159.2,136.1,156.3,134.7z"/>
		<path d="M109.2,157.9c-0.3,0.1-0.6,0.3-1.1,0.5c1.1,0.6,1.9,0.9,2.1-0.5c1.6,0.2,2.6-0.4,3-2c-0.3-0.3-0.7-0.7-1-1
			C111.2,155.9,110.2,156.9,109.2,157.9z"/>
		<path d="M179.3,109.2c0,0.2,0.1,0.3,0.1,0.5c0.6,0,1.1,0,1.7,0c0-0.3-0.1-0.6-0.1-0.9C180.4,109,179.9,109.1,179.3,109.2z"/>
		<path d="M169.2,95.9L169.2,95.9L169.2,95.9L169.2,95.9c-0.3,0-0.7,0-1,0s-0.7,0-1,0c-0.2,0-0.3,0-0.5,0s-0.3,0-0.5,0
			c-2.5-0.9-4.8-2.4-5.9-4.6c-1.4-2.9-3.7-4.2-6.3-5.4c-3.6-1.7-7.8-0.9-12-2.5l0,0l-4.8-6.1l0,0c0-1.5-0.4-3.3,0.1-4.7
			c0.6-1.4,1.4-2.4,0.2-3.8c-1-1.3,0.2-3.1-1.2-4.5c-0.6-0.6-1.1-1.7-2-2.3c-2.1-1.5-4.6-2.7-6.1-4.9c-0.4,0-0.6,0-1,0
			c-1.9,2.4-3.7,4.8-6.6,6.2c-1.3,0.6-2.2,2-3.2,3.1l0,0c-0.1,3.1,0.8,5.8,3,9.4l0,0l2.8,0.5l0,0l0.9,4.3l0,0c-1.1,1.9-2.9,3-5,2.7
			l0,0c-1.1,3.9-2,7.2-3,10.7l0,0l-2.6-2.3l0,0l-3.7,3.4l0,0l-5.6-2.3l0,0c1.6-1.1,3.5-1.2,3.3-4l-1.4,1.3l0,0
			c-2.7,0.2-3.7-2.8-6.2-3.1c-2.3-0.3-4.4-1.3-7-1.6l0,0L89,81l0,0l-6.3,1.5l0,0c-1.8,1-2.1,3.7-2.9,6c-0.3,0.9-0.7,1.7-1,2.6
			c-0.4,1,0.9,2.5-1,3c0,0.3,0,0.7,0,1c0.2,0,0.5,0,0.5,0c0.4,2.9,1.7,5.3,3.3,7.3l0,0c0.2,2.3-0.2,4.8,0.7,6.5
			c1.2,2.2-0.2,4.4,1.1,6.6c0.9,1.6-0.1,4.3,0.5,6.2c0.8,2.2-0.8,4.1,0.1,6.1l0,0l2.5,2.5l0,0l1.6,5.6l0,0l4,4l0,0l1.6,4l0,0h3l0,0
			c1.7-1,2.7-1.8,3.8-2.2c1.6-0.5,3.3-0.7,5.2-1.1l0,0c2.1-5.1,8.1-7.3,9.7-12.1l0,0c-0.4-1.8-0.7-3-0.8-4.2
			c-0.1-1.3,0.4-3.1-0.3-3.8c-1.8-1.9,0-3.2,0.3-4.9l0,0l-1.4-0.7l0,0l-2.4-4.6c0.1-0.2,0.4-0.5,0.8-0.9c-1.3-3.2-1.3-4.7-0.5-9.4
			l0,0h4.5c0.1,0.3,0.2,0.6,0.3,0.8c0.2-0.3,0.4-0.6,0.7-0.8c0-0.3,0-0.7,0-1c-1.4-0.2-1.2-1-0.5-2.1l0.5,1.1l0,0l1,1l1,1l0,0
			l1.3,2.7l0,0c1,0.3,1.9,0.6,2.8,0.9c4.8,1.8,6.1,2,10.9,0.4c3.6-1.2,7.2-2.6,10.7-4.2c2.3-1,4.6-1.9,7.2-1.8c1.3,0.1,2.7,0.3,4,0
			c1.8-0.4,3.4-1.7,5.1-1.8c2-0.2,4,0.6,6,0.9l0,0l0,0c0,0,0,0,0.1,0l0,0c0.1,0,0.3,0,0.4,0c0.2,0,0.3,0,0.5,0c0.3,0,0.7,0,1,0
			s0.7,0,1,0c0.3,1.4,1,1.2,2.1,0.5C170.6,96.9,169.9,96.4,169.2,95.9L169.2,95.9z"/>
		<path d="M111.1,82.5c0-0.2-0.1-0.3-0.1-0.5c-0.6,0-1.1,0-1.7,0c0,0.3,0.1,0.6,0.1,0.9C110,82.8,110.6,82.7,111.1,82.5z"/>
	</g>
	<g id="martinique">
		<path d="M330.9,156.7c-0.5-1.4-1-2.9-1.5-4.4c0.3-0.3,0.6-0.7,0.9-1c-0.6-1-1.2-2.1-1.7-3c0.3-0.7,0.7-1.3,1.2-2.2
			c-1.3-0.2-2.2-0.3-3.2-0.5c-0.1-0.8-0.2-1.6-0.2-2.4c-1.8-0.7-3.7-1.4-2.7-4.3c-3.8,0.3-2.6-3.2-4.1-4.6c0.6-0.5,1.3-1,1.9-1.5
			c-0.3-0.3-0.7-0.7-1-1c-0.8,0-1.7,0-2.5,0c-0.6,0.6-1.1,1.2-1.5,1.5c-0.9-0.8-1.8-1.6-3-2.7c0.4-2.3,3.6-1.9,5-3.5
			c-0.2-3-3.7-1.5-5-4.1c0-0.6,0-1.9,0-3.1c0.5-0.3,1-0.6,1.2-0.7c1.9,0.7,3.6,1.4,5.8,2.2c0-1.9,0-3.1,0-4.4c1.1,0.4,1.8,0.7,2.8,1.1
			c0-0.9,0.1-1.4,0.1-2c-3.6-1.3-6.1,2.6-9.6,1.9c-0.3-0.1-0.7,0.6-1,1c-0.2,0.2-0.2,0.6-0.4,0.8c-0.3,0.4-0.7,0.8-0.9,1.2
			c-2.2-2.7-4.2-5.1-6-7.6s-4.5-3.9-6.2-6.4c-2.3,0-4.6-0.3-6.1-2c-1.8-2.1-4.2-2.7-6.7-3.1c-0.8-0.2-1.9,0.5-2-1c-0.7,0-1.3,0-2,0
			c-0.5,1.9-2,0.6-3,1c-2.4,0.8-4.2,2.6-6,4.5c-0.5,0.7,0.8,2.3-1,2.5c0,0.3,0,0.7,0,1c0,0.7,0,1.3,0,2c0.3,0,0.7,0,1,0
			c0.2,0.7,0.3,1.7,0.7,2.2c2.1,2.2,4.2,4.2,6.1,6c-0.4,2.5-0.8,4.7-1.1,6.6c1.2,2.1,2,4,3.3,5.6c1.8,2.3,3.8,4.6,6.6,5.5
			c1.8,0.5,2.1,1.7,2.6,2.8c2.3,0.4,4.5,0.8,6.9,1.3c0.9-0.6,2.1-1.4,3.7-2.5c0.3,3.6,0.4,7,4.6,8.2c-1.1,1.3-2,2.4-2.8,3.4
			c-2.6,0.2-4.2-0.9-5.5-3.3c-2.5,2-5,3.9-8,6.3c1.3,0.6,1.8,1,2.5,1.3c0.8,2.7,1.1,5.8,3.9,7.7c1.2-1.2,2.5-2.5,3.8-3.8
			c2.3-1.7,4.8,2.8,7,0.1c3,0.8,5.7,3,9.1,1c1.1,0.8,2.3,1.8,3.5,2.7c0.9-1.1,1.8-2.2,3.3-4c0.5,1.3,0.7,2.1,1.1,3.1
			c-0.4,0.3-1.4,1.1-2.4,1.9c-0.4,1.3-0.7,2.6-1.1,4c0.7,1,1.4,2,2.1,3c0.7,0,1.3,0,2,0c0.9-0.9,1.8-1.8,2.7-2.7
			c-0.2-0.3-0.6-0.8-1.1-1.5c3.3-1.3,4.5-3.7,4.4-7c0-0.2,0.6-0.5,1-0.8c0-0.7,0-1.3,0-2C331.9,156.7,331.4,156.7,330.9,156.7z"/>
	</g>
</g>
</svg>
