<?xml version="1.0" encoding="utf-8"?>
<!-- Generator: Adobe Illustrator 14.0.0, SVG Export Plug-In . SVG Version: 6.00 Build 43363)  -->
<!DOCTYPE svg PUBLIC "-//W3C//DTD SVG 1.1//EN" "http://www.w3.org/Graphics/SVG/1.1/DTD/svg11.dtd">
<svg version="1.1" id="Calque_1" xmlns="http://www.w3.org/2000/svg" xmlns:xlink="http://www.w3.org/1999/xlink" x="0px" y="0px"
	 width="1080px" height="1245px" viewBox="0 0 1080 1245" enable-background="new 0 0 1080 1245" xml:space="preserve">
<g>
	<defs>
		<rect id="SVGID_1_" width="1080" height="756"/>
	</defs>
	<clipPath id="SVGID_2_">
		<use xlink:href="#SVGID_1_"  overflow="visible"/>
	</clipPath>
	<path clip-path="url(#SVGID_2_)" d="M111.1,82.5c0-0.2-0.1-0.3-0.1-0.5h-1.7c0,0.3,0.1,0.6,0.1,0.9C110,82.8,110.6,82.7,111.1,82.5
		"/>
</g>
<path fill="#FFFFFF" stroke="#000000" stroke-width="0.25" stroke-miterlimit="10" d="M340.994,538.276h-75.839l-14.806,21.783
	l-1.645-21.783h-22.208c-5.594,0-10.2-6.857-10.2-15.328V508.83c0-8.471,4.606-15.33,10.2-15.33h114.499
	c5.594,0,10.2,6.859,10.2,15.33v14.118C351.194,531.419,346.588,538.276,340.994,538.276z"/>
<path fill="#FFFFFF" stroke="#000000" stroke-width="0.25" stroke-miterlimit="10" d="M961.802,213.363h-62.07l-12.117,16.667
	l-1.347-16.667h-18.175c-4.579,0-8.349-5.247-8.349-11.728v-10.802c0-6.482,3.77-11.729,8.349-11.729h93.709
	c4.579,0,8.349,5.248,8.349,11.729v10.802C970.15,208.116,966.381,213.363,961.802,213.363z"/>
<path fill="#FFFFFF" stroke="#000000" stroke-width="0.25" stroke-miterlimit="10" d="M726.08,437.204H648.8l-15.086,17.916
	l-1.677-17.916h-22.629c-5.701,0-10.395-5.64-10.395-12.606v-11.611c0-6.967,4.693-12.608,10.395-12.608H726.08
	c5.7,0,10.395,5.642,10.395,12.608v11.611C736.475,431.564,731.78,437.204,726.08,437.204z"/>
<path fill="#FFFFFF" stroke="#000000" stroke-width="0.25" stroke-miterlimit="10" d="M912.117,446.363h-83.953l-16.389,19.393
	l-1.821-19.393h-24.583c-6.193,0-11.292-6.105-11.292-13.647v-12.568c0-7.542,5.099-13.647,11.292-13.647h126.746
	c6.192,0,11.292,6.105,11.292,13.647v12.568C923.409,440.258,918.31,446.363,912.117,446.363z"/>
<path fill="#FFFFFF" stroke="#000000" stroke-width="0.25" stroke-miterlimit="10" d="M780.316,567.903h-59.09l-11.535,14.861
	l-1.282-14.861h-17.303c-4.358,0-7.947-4.679-7.947-10.458v-9.632c0-5.779,3.589-10.459,7.947-10.459h89.21
	c4.358,0,7.947,4.68,7.947,10.459v9.632C788.264,563.225,784.675,567.903,780.316,567.903z"/>
<path fill="#FFFFFF" stroke="#000000" stroke-width="0.25" stroke-miterlimit="10" d="M958.5,312.82h-85.352l-16.664,22.209
	l-1.851-22.209h-24.996c-6.295,0-11.479-6.992-11.479-15.628v-14.395c0-8.637,5.184-15.63,11.479-15.63H958.5
	c6.296,0,11.48,6.993,11.48,15.63v14.395C969.98,305.828,964.796,312.82,958.5,312.82z"/>
<path fill="#FFFFFF" stroke="#000000" stroke-width="0.25" stroke-miterlimit="10" d="M781.705,315.776h-60.93l-11.896,17.62
	l-1.321-17.62h-17.842c-4.495,0-8.195-5.546-8.195-12.398v-11.419c0-6.852,3.7-12.4,8.195-12.4h91.988
	c4.495,0,8.195,5.548,8.195,12.4v11.419C789.9,310.229,786.2,315.776,781.705,315.776z"/>
<path fill="#FFFFFF" stroke="#000000" stroke-width="0.25" stroke-miterlimit="10" d="M870.481,122.062h-86.811l-16.947,18.703
	l-1.884-18.703h-25.419c-6.404,0-11.677-5.887-11.677-13.161V96.779c0-7.273,5.272-13.162,11.677-13.162h131.061
	c6.404,0,11.677,5.889,11.677,13.162v12.122C882.158,116.174,876.886,122.062,870.481,122.062z"/>
<path fill="#FFFFFF" stroke="#000000" stroke-width="0.25" stroke-miterlimit="10" d="M826.029,210.149h-68.82l-13.436,13.88
	l-1.493-13.88h-20.151c-5.077,0-9.257-4.37-9.257-9.767v-8.996c0-5.398,4.18-9.769,9.257-9.769h103.9
	c5.077,0,9.257,4.371,9.257,9.769v8.996C835.286,205.779,831.106,210.149,826.029,210.149z"/>
<path fill="#FFFFFF" stroke="#000000" stroke-width="0.25" stroke-miterlimit="10" d="M647.98,303.243h-70.658l-13.795,19.787
	l-1.532-19.787h-20.69c-5.212,0-9.504-6.229-9.504-13.924v-12.824c0-7.694,4.292-13.925,9.504-13.925H647.98
	c5.212,0,9.503,6.23,9.503,13.925v12.824C657.483,297.014,653.192,303.243,647.98,303.243z"/>
<path fill="#FFFFFF" stroke="#000000" stroke-width="0.25" stroke-miterlimit="10" d="M553.195,239.285H494.18L482.658,253.5
	l-1.28-14.215h-17.282c-4.353,0-7.937-4.475-7.937-10.002v-9.213c0-5.528,3.584-10.004,7.937-10.004h89.099
	c4.354,0,7.938,4.476,7.938,10.004v9.213C561.133,234.811,557.549,239.285,553.195,239.285z"/>
<path fill="#FFFFFF" stroke="#000000" stroke-width="0.25" stroke-miterlimit="10" d="M687.822,194.631h-60.511l-11.813,14.398
	l-1.313-14.398h-17.719c-4.464,0-8.139-4.532-8.139-10.131v-9.332c0-5.599,3.675-10.132,8.139-10.132h91.355
	c4.464,0,8.139,4.533,8.139,10.132v9.332C695.961,190.099,692.286,194.631,687.822,194.631z"/>
<path fill="#FFFFFF" stroke="#000000" stroke-width="0.25" stroke-miterlimit="10" d="M998.754,549.9h-65.942l-12.874,16.129
	l-1.431-16.129h-19.31c-4.864,0-8.869-5.077-8.869-11.35v-10.454c0-6.271,4.005-11.351,8.869-11.351h99.557
	c4.865,0,8.87,5.079,8.87,11.351v10.454C1007.624,544.823,1003.619,549.9,998.754,549.9z"/>
<path fill="#FFFFFF" stroke="#000000" stroke-width="0.25" stroke-miterlimit="10" d="M1019.625,657.075h-46.758l-9.128,10.954
	l-1.015-10.954h-13.691c-3.449,0-6.289-3.448-6.289-7.708v-7.1c0-4.26,2.84-7.709,6.289-7.709h70.592
	c3.449,0,6.289,3.449,6.289,7.709v7.1C1025.914,653.627,1023.074,657.075,1019.625,657.075z"/>
<path fill="#FFFFFF" stroke="#000000" stroke-width="0.25" stroke-miterlimit="10" d="M202.893,272.661h-59.692l-11.654,14.31
	l-1.294-14.31h-17.48c-4.403,0-8.028-4.504-8.028-10.069v-9.274c0-5.565,3.625-10.071,8.028-10.071h90.12
	c4.403,0,8.029,4.506,8.029,10.071v9.274C210.921,268.156,207.296,272.661,202.893,272.661z"/>
<path fill="#FFFFFF" stroke="#000000" stroke-width="0.25" stroke-miterlimit="10" d="M370.21,268.578h-52.587l-10.267,11.385
	l-1.141-11.385h-15.399c-3.879,0-7.073-3.584-7.073-8.011v-7.378c0-4.427,3.194-8.012,7.073-8.012h79.394
	c3.879,0,7.073,3.585,7.073,8.012v7.378C377.283,264.994,374.089,268.578,370.21,268.578z"/>
<path fill="#FFFFFF" stroke="#000000" stroke-width="0.25" stroke-miterlimit="10" d="M366.768,112.768h-59.616l-11.639,11.262
	l-1.293-11.262h-17.458c-4.397,0-8.018-3.545-8.018-7.925v-7.299c0-4.379,3.621-7.925,8.018-7.925h90.005
	c4.398,0,8.019,3.546,8.019,7.925v7.299C374.786,109.222,371.166,112.768,366.768,112.768z"/>
<path fill="#FFFFFF" stroke="#000000" stroke-width="0.25" stroke-miterlimit="10" d="M169.641,105.171h-54.065l-10.555,11.887
	l-1.173-11.887H88.016c-3.988,0-7.271-3.742-7.271-8.365v-7.705c0-4.623,3.284-8.366,7.271-8.366h81.625
	c3.988,0,7.272,3.743,7.272,8.366v7.705C176.913,101.429,173.629,105.171,169.641,105.171z"/>
<path fill="#FFFFFF" stroke="#000000" stroke-width="0.25" stroke-miterlimit="10" d="M534.44,793.714h-85.958L431.7,812.061
	l-1.864-18.347h-25.172c-6.34,0-11.561-5.776-11.561-12.911v-11.891c0-7.135,5.221-12.912,11.561-12.912H534.44
	c6.34,0,11.56,5.777,11.56,12.912v11.891C546,787.938,540.78,793.714,534.44,793.714z"/>
<path fill="#FFFFFF" stroke="#000000" stroke-width="0.25" stroke-miterlimit="10" d="M521.047,928.199h-85.958l-16.782,18.347
	l-1.864-18.347h-25.172c-6.34,0-11.561-5.776-11.561-12.911v-11.891c0-7.135,5.221-12.912,11.561-12.912h129.776
	c6.341,0,11.561,5.777,11.561,12.912v11.891C532.608,922.423,527.388,928.199,521.047,928.199z"/>
<path fill="#FFFFFF" stroke="#000000" stroke-width="0.25" stroke-miterlimit="10" d="M676.889,956.229H590.93l-16.781,18.347
	l-1.864-18.347h-25.172c-6.341,0-11.561-5.776-11.561-12.911v-11.891c0-7.135,5.22-12.912,11.561-12.912h129.776
	c6.34,0,11.561,5.777,11.561,12.912v11.891C688.449,950.453,683.229,956.229,676.889,956.229z"/>
<path fill="#FFFFFF" stroke="#000000" stroke-width="0.25" stroke-miterlimit="10" d="M732.632,892.201h-85.958l-16.781,18.347
	l-1.865-18.347h-25.172c-6.34,0-11.561-5.776-11.561-12.911v-11.891c0-7.135,5.221-12.912,11.561-12.912h129.776
	c6.341,0,11.561,5.777,11.561,12.912v11.891C744.192,886.425,738.973,892.201,732.632,892.201z"/>
<path fill="#FFFFFF" stroke="#000000" stroke-width="0.25" stroke-miterlimit="10" d="M618.438,1039.193H532.48l-16.782,18.347
	l-1.864-18.347h-25.172c-6.34,0-11.561-5.776-11.561-12.911v-11.891c0-7.135,5.221-12.912,11.561-12.912h129.776
	c6.341,0,11.561,5.777,11.561,12.912v11.891C629.999,1033.417,624.779,1039.193,618.438,1039.193z"/>
<path fill="#FFFFFF" stroke="#000000" stroke-width="0.25" stroke-miterlimit="10" d="M457.991,1054.193h-85.958l-16.782,18.347
	l-1.864-18.347h-25.172c-6.34,0-11.561-5.776-11.561-12.911v-11.891c0-7.135,5.221-12.912,11.561-12.912h129.776
	c6.341,0,11.561,5.777,11.561,12.912v11.891C469.551,1048.417,464.332,1054.193,457.991,1054.193z"/>
<path fill="#FFFFFF" stroke="#000000" stroke-width="0.25" stroke-miterlimit="10" d="M979.835,842.703h-85.958l-16.781,18.347
	l-1.865-18.347h-25.172c-6.34,0-11.561-5.776-11.561-12.911v-11.891c0-7.135,5.221-12.912,11.561-12.912h129.776
	c6.341,0,11.561,5.777,11.561,12.912v11.891C991.396,836.927,986.176,842.703,979.835,842.703z"/>
<path fill="#FFFFFF" stroke="#000000" stroke-width="0.25" stroke-miterlimit="10" d="M979.836,956.229h-85.959l-16.781,18.347
	l-1.864-18.347H850.06c-6.341,0-11.562-5.776-11.562-12.911v-11.891c0-7.135,5.221-12.912,11.562-12.912h129.776
	c6.34,0,11.561,5.777,11.561,12.912v11.891C991.396,950.453,986.176,956.229,979.836,956.229z"/>
<path fill="#FFFFFF" stroke="#000000" stroke-width="0.25" stroke-miterlimit="10" d="M854.788,1011.163H768.83l-16.781,18.347
	l-1.865-18.347h-25.172c-6.34,0-11.561-5.776-11.561-12.911v-11.891c0-7.135,5.221-12.912,11.561-12.912h129.776
	c6.341,0,11.561,5.777,11.561,12.912v11.891C866.349,1005.387,861.129,1011.163,854.788,1011.163z"/>
<path fill="#FFFFFF" stroke="#000000" stroke-width="0.25" stroke-miterlimit="10" d="M816.429,1127.689h-85.958l-16.781,18.347
	l-1.865-18.347h-25.172c-6.34,0-11.561-5.776-11.561-12.911v-11.891c0-7.135,5.221-12.912,11.561-12.912h129.776
	c6.341,0,11.561,5.777,11.561,12.912v11.891C827.989,1121.913,822.77,1127.689,816.429,1127.689z"/>
<path fill="#FFFFFF" stroke="#000000" stroke-width="0.25" stroke-miterlimit="10" d="M716.184,1127.689h-85.958l-16.782,18.347
	l-1.863-18.347h-25.172c-6.341,0-11.562-5.776-11.562-12.911v-11.891c0-7.135,5.221-12.912,11.562-12.912h129.775
	c6.341,0,11.561,5.777,11.561,12.912v11.891C727.744,1121.913,722.524,1127.689,716.184,1127.689z"/>
<path fill="#FFFFFF" stroke="#000000" stroke-width="0.25" stroke-miterlimit="10" d="M824.496,864.171h-85.958l-16.782,18.347
	l-1.863-18.347h-25.172c-6.341,0-11.562-5.776-11.562-12.911v-11.891c0-7.135,5.221-12.912,11.562-12.912h129.775
	c6.341,0,11.561,5.777,11.561,12.912v11.891C836.057,858.395,830.837,864.171,824.496,864.171z"/>
</svg>
